<?xml version="1.0" standalone="no"?>
<!DOCTYPE svg PUBLIC "-//W3C//DTD SVG 20010904//EN"
 "http://www.w3.org/TR/2001/REC-SVG-20010904/DTD/svg10.dtd">
<svg version="1.0" xmlns="http://www.w3.org/2000/svg"
 width="700.000000pt" height="700.000000pt" viewBox="0 0 700.000000 700.000000"
 preserveAspectRatio="xMidYMid meet">
<metadata>
Created by potrace 1.11, written by Peter Selinger 2001-2013
</metadata>
<g transform="translate(0.000000,700.000000) scale(0.100000,-0.100000)"
fill="#000000" stroke="none">
<path d="M4717 6164 c-1 -1 -31 -5 -67 -8 -213 -21 -435 -149 -577 -333 l-24
-31 -62 25 c-147 60 -305 94 -462 98 -157 4 -317 -25 -499 -91 l-79 -29 -21
29 c-12 16 -49 58 -83 92 -170 171 -363 246 -616 238 -62 -2 -119 -5 -127 -7
-8 -2 -33 -7 -55 -11 -52 -10 -221 -64 -260 -83 -16 -9 -39 -23 -50 -33 -11
-9 -48 -22 -82 -28 -305 -53 -542 -346 -543 -668 0 -126 31 -233 101 -350 35
-56 153 -184 170 -184 6 0 8 -26 4 -67 -26 -267 20 -467 151 -650 25 -35 50
-63 57 -63 7 0 48 24 92 53 149 98 358 208 465 247 19 6 44 16 55 21 152 64
469 150 648 174 27 4 56 8 65 10 23 4 117 14 227 24 98 8 665 6 755 -3 72 -7
150 -17 175 -22 11 -2 43 -6 70 -9 28 -4 68 -10 90 -15 144 -29 240 -52 310
-74 44 -15 83 -26 88 -26 4 0 67 -23 140 -51 184 -71 349 -154 504 -253 l132
-84 50 66 c134 182 183 382 158 645 -4 42 -4 77 1 77 15 0 116 103 151 153
136 199 159 474 55 678 -97 193 -303 348 -499 376 -22 3 -52 16 -67 28 -54 45
-267 114 -403 130 -57 7 -135 12 -138 9z m-2332 -219 c150 -30 287 -132 416
-310 32 -44 64 -88 71 -97 12 -16 19 -14 90 26 133 76 269 119 443 141 190 24
392 -21 620 -139 44 -22 83 -42 86 -44 3 -1 33 39 67 90 126 193 283 310 446
335 45 7 210 6 241 -1 11 -2 27 -5 35 -5 8 -1 -12 -18 -43 -39 -300 -197 -403
-597 -231 -899 101 -177 270 -299 469 -338 54 -10 209 -5 263 9 28 8 53 11 53
8 9 -43 5 -172 -6 -231 -16 -82 -43 -161 -56 -161 -4 0 -47 23 -96 51 -356
207 -781 339 -1273 394 -154 18 -657 24 -825 11 -127 -10 -292 -29 -360 -41
-260 -45 -542 -124 -730 -205 -91 -39 -255 -121 -323 -161 -45 -27 -87 -49
-92 -49 -6 0 -40 82 -45 110 -1 3 -5 23 -9 45 -12 54 -15 224 -5 230 4 3 29 1
56 -5 213 -48 462 29 626 195 31 32 57 62 57 66 0 4 6 14 13 21 19 19 72 133
92 198 25 79 29 249 9 330 -45 180 -163 338 -320 431 -27 16 -42 29 -34 29 26
1 95 12 99 16 5 5 161 -4 196 -11z m-408 -189 c94 -45 181 -132 228 -229 65
-136 66 -261 4 -392 -73 -156 -235 -267 -399 -274 -128 -5 -253 45 -345 137
-162 162 -195 392 -83 573 79 127 208 209 353 226 28 3 51 6 53 8 11 9 130
-22 189 -49z m3440 -3 c154 -75 277 -276 268 -440 -4 -83 -11 -110 -50 -189
-46 -94 -132 -179 -225 -221 -177 -79 -370 -45 -508 90 -245 239 -190 608 112
757 134 67 269 68 403 3z"/>
<path d="M1690 5677 c-115 -32 -199 -114 -239 -235 -64 -189 25 -377 210 -442
219 -76 426 43 473 272 50 247 -197 473 -444 405z m170 -216 c46 -23 81 -88
75 -143 -11 -106 -110 -165 -209 -124 -103 43 -124 165 -43 244 55 53 102 59
177 23z"/>
<path d="M5117 5675 c-95 -26 -169 -92 -219 -193 -30 -61 -33 -75 -33 -157 1
-77 5 -98 28 -147 38 -77 133 -161 207 -183 206 -60 386 31 455 231 49 142 -5
301 -135 396 -81 59 -204 81 -303 53z m178 -214 c47 -27 77 -87 70 -140 -7
-64 -38 -107 -90 -127 -71 -26 -144 -6 -183 50 -30 43 -34 95 -12 143 41 91
132 122 215 74z"/>
<path d="M3218 4345 c-2 -1 -39 -5 -83 -8 -79 -6 -216 -24 -245 -32 -8 -2 -33
-6 -55 -10 -67 -9 -194 -42 -310 -78 -343 -108 -605 -256 -801 -452 -156 -155
-256 -328 -292 -505 -14 -69 -7 -291 12 -375 55 -243 134 -386 310 -560 95
-94 123 -117 196 -152 105 -51 160 -64 264 -64 114 0 216 30 368 106 135 68
173 76 236 54 38 -13 64 -64 64 -124 0 -94 -35 -112 -233 -120 -276 -11 -351
-28 -413 -93 -25 -27 -28 -36 -21 -68 12 -69 64 -153 139 -230 64 -65 88 -81
189 -129 122 -57 139 -74 150 -142 15 -92 -142 -175 -207 -110 -12 12 -35 45
-51 72 -84 150 -108 185 -156 233 -50 50 -154 125 -228 166 -35 18 -35 18 -54
-5 -37 -47 -71 -113 -89 -177 -14 -54 -17 -95 -15 -221 4 -176 -3 -213 -44
-252 -26 -24 -36 -27 -85 -25 -41 2 -61 9 -81 27 -36 33 -56 84 -47 123 7 35
56 141 91 198 20 33 59 135 69 183 13 59 12 185 -1 249 -27 128 -70 194 -251
387 -19 20 -45 39 -58 41 -33 7 -97 -17 -110 -39 -37 -61 -23 -95 87 -218 113
-126 140 -182 138 -293 0 -45 -36 -188 -51 -207 -20 -25 -90 -175 -105 -227
-36 -127 -10 -240 77 -329 156 -160 433 -128 528 61 40 79 49 135 47 283 -1
76 0 142 3 148 11 17 70 -53 137 -164 74 -124 119 -177 178 -216 35 -23 50
-26 125 -26 75 1 93 4 154 34 85 41 140 90 174 155 22 43 26 64 26 136 0 72
-4 93 -27 142 -35 72 -92 129 -165 163 -31 15 -76 37 -99 48 -46 23 -130 94
-121 102 3 3 58 8 124 10 251 11 301 21 368 76 79 66 116 158 111 278 -6 153
-78 252 -221 301 -100 35 -208 14 -370 -68 -66 -34 -119 -59 -144 -67 -97 -32
-224 -23 -313 21 -66 34 -212 179 -269 269 -157 244 -187 515 -83 750 117 263
438 496 885 641 133 43 317 86 423 99 18 2 57 7 87 10 30 4 75 9 100 11 74 5
521 4 611 -2 107 -7 376 -44 408 -55 13 -5 26 -8 28 -5 3 2 23 -2 46 -10 22
-8 54 -17 71 -20 98 -16 370 -127 481 -194 33 -20 67 -39 75 -42 30 -11 176
-126 234 -183 113 -113 197 -251 226 -374 22 -94 16 -250 -15 -372 -42 -164
-119 -292 -249 -417 -107 -103 -166 -134 -279 -148 -81 -10 -169 13 -296 79
-163 84 -207 97 -297 92 -183 -9 -300 -130 -309 -317 -8 -157 60 -268 195
-319 52 -20 99 -25 289 -34 63 -3 117 -8 120 -11 8 -8 -66 -72 -114 -97 -22
-12 -64 -31 -93 -43 -71 -30 -118 -67 -153 -122 -91 -143 -73 -312 46 -421 38
-35 140 -94 140 -81 0 2 11 -2 23 -9 13 -7 53 -13 88 -12 74 0 155 33 195 79
27 30 109 148 109 156 0 14 73 126 101 154 43 44 45 37 42 -132 -2 -117 0
-142 22 -212 32 -103 91 -170 179 -203 219 -82 447 60 464 288 6 86 -13 149
-89 297 -69 134 -89 213 -78 312 10 79 42 138 125 227 116 124 130 150 107
205 -17 41 -49 63 -92 63 -21 0 -44 -3 -50 -7 -6 -4 -54 -55 -107 -113 -147
-163 -182 -238 -189 -398 -6 -132 26 -258 98 -380 52 -88 77 -168 66 -208 -20
-73 -68 -107 -147 -103 -88 5 -104 48 -107 290 -2 133 -7 194 -19 232 -17 54
-89 174 -105 174 -19 0 -218 -139 -261 -183 -25 -25 -80 -104 -124 -177 -83
-138 -110 -163 -162 -154 -146 26 -172 195 -38 249 102 42 181 92 244 155 83
82 126 147 141 216 l12 55 -34 35 c-59 61 -143 78 -437 89 -74 3 -142 10 -153
15 -33 18 -51 57 -51 110 1 88 48 135 133 133 37 -1 85 -21 231 -98 87 -46
173 -68 277 -70 179 -4 327 55 467 188 166 157 255 307 315 527 28 101 29 106
34 250 5 143 -6 215 -55 337 -69 173 -204 339 -391 480 -280 211 -739 382
-1151 428 -27 3 -69 8 -95 11 -45 6 -659 14 -665 9z"/>
</g>
</svg>
