<?xml version="1.0" encoding="UTF-8" standalone="no"?><!DOCTYPE svg PUBLIC "-//W3C//DTD SVG 1.1//EN" "http://www.w3.org/Graphics/SVG/1.1/DTD/svg11.dtd"><svg width="100%" height="100%" viewBox="0 0 2607 996" version="1.1" xmlns="http://www.w3.org/2000/svg" xmlns:xlink="http://www.w3.org/1999/xlink" xml:space="preserve" xmlns:serif="http://www.serif.com/" style="fill-rule:evenodd;clip-rule:evenodd;stroke-linecap:round;stroke-linejoin:round;stroke-miterlimit:10;"><rect id="Artboard1" x="0" y="0" width="2607" height="996" style="fill:none;"/><g id="Layer-1" serif:id="Layer 1"><path d="M102.836,80.946c0,0 190.886,121.195 400.01,132.867c67.597,3.771 218.915,-62.804 248.922,44.407c30.006,107.211 166.882,226.387 413.856,186.531c246.978,-39.852 292.987,-119.839 471.429,-110.636c178.446,9.207 390.34,57.139 422.011,-26.211c31.671,-83.353 50.577,-135.344 121.328,-135.49c70.751,-0.142 170.441,21.575 241.188,-17.847c70.746,-39.422 101.007,-73.621 101.007,-73.621" style="fill:none;stroke:#fff;stroke-opacity:0.301961;stroke-width:5px;stroke-dasharray:15,25;"/></g><g id="areas"><path d="M1729.55,779.858c0,0 54.791,-1.928 82.886,6.584c28.088,8.508 42.733,18.035 44.617,32.645c1.522,11.764 -8.059,44.401 -70.284,48.698c-62.222,4.3 -103.906,-1.482 -119.965,-5.917c-27.206,-7.502 -34.581,-42.916 -16.393,-58.891c12.925,-11.351 36.32,-20.199 79.139,-23.119Zm-543.932,-172.622c0,0 -137.193,-7.253 -237.547,9.642c-73.25,12.328 -82.41,33.052 -78.951,79.889c2.42,32.747 20.732,37.259 88.523,58.531c28.375,8.905 57.617,75.172 113.752,85.266c32.462,5.836 82.904,-6.697 121.985,-0.382c63.716,10.294 117.157,26.707 144.921,20.963c56.386,-11.657 10.819,-80.483 49.511,-110.783c43.957,-34.423 84.042,36.298 136.761,-16.297c0,0 90.897,-84.436 101.832,-99.516c10.932,-15.081 23.712,-36.55 2.428,-62.137c-21.283,-25.592 -34.998,-21.539 -101.481,12.235c-67.575,34.334 -104.835,48.574 -114.053,48.385c-24.093,-0.514 -46.161,-16.035 -69.185,-19.802c-41.282,-6.759 -110.969,-4.095 -158.496,-5.994Zm814.381,-108.34c0,0 2.918,-4.771 18.516,-13.661c6.975,-3.979 9.368,14.351 26.09,8.531c16.937,-5.898 8.542,-19.983 16.416,-21.353c11.028,-1.915 19.678,-2.459 34.168,-1.861c49.407,2.034 93.256,9.441 116.292,28.344c25.919,21.264 46.419,51.618 34.376,76.098c-12.047,24.483 -42.888,35.488 -84.169,38.63c-56.023,4.269 -106.754,7.492 -141.034,-7.272c-23.337,-10.051 -55.818,-60.064 -20.655,-107.456Zm74.887,-71.529c0.324,-22.982 -24.874,-10.537 -19.686,-21.773c14.992,-32.47 55.988,-16.83 74.929,-46.161c29.698,-45.991 70.598,-93.059 131.658,-108.997c11.225,-2.929 23.129,-4.809 35.77,-5.434c81.417,-4.038 87.35,15.729 119.117,-13.163c31.775,-28.895 67.078,-44.628 80.506,-15.389c13.417,29.239 7.643,44.022 12.035,78.696c4.385,34.673 37.99,98.285 -4.218,125.162c-42.205,26.88 -69.61,12.95 -102.068,44.176c-32.462,31.223 -81.966,106.395 -121.252,83.757c-42.324,-24.387 -50.708,-58.42 -92.993,-72.374c-56.548,-18.662 -89.021,-14.204 -116.898,-13.506c-12.521,0.313 -21.168,-3.751 -23.638,-16.52c-1.216,-6.238 26.394,5.713 26.738,-18.474Z" style="fill:#fff;fill-opacity:0.101961;"/></g><g id="Layer-11" serif:id="Layer 1"><path d="M214.423,447.797l-24.842,41.909c0,0 5.467,30.685 15.703,45.182c10.236,14.497 61.966,84.954 109.706,102.704c47.737,17.75 131.629,37.586 181.106,40.129c49.478,2.548 108.16,-10.759 134.428,-19.041c26.272,-8.282 68.747,1.722 104.406,50.307c35.652,48.586 75.773,64.595 131.865,73.083c56.092,8.483 95.031,23.887 142.136,74.253c47.108,50.365 126.782,32.747 162.258,31.045c35.473,-1.699 87.952,3.939 132.769,15.004c44.809,11.07 73.609,-3.268 98.873,-15.303c25.257,-12.043 45.763,-32.096 45.763,-32.096" style="fill:none;stroke:#fff;stroke-opacity:0.301961;stroke-width:5px;stroke-linejoin:miter;stroke-miterlimit:1.5;stroke-dasharray:5,10;"/></g><g id="buildings"><path d="M274.462,228.336l-9.518,38.341l286.532,72.489l9.521,-38.341l-286.535,-72.489Zm288.284,113.441l77.235,19.535l9.518,-38.341l-77.235,-19.535l-9.518,38.341Zm783.485,217.43l112.645,0l0,-113.714l-112.645,0l0,113.714Zm-599.933,-101.483l-5.298,-1.871l-3.68,10.614l5.209,1.835l-5.382,15.108l115.224,41.806l4.298,-12.071l8.672,3.145l4.266,-11.977l107.29,38.929l13.248,-37.199l-117.773,-42.733l-8.564,24.052l-113.414,-41.151l-4.096,11.513Zm474.095,101.483l111.996,0l0,-58.628l-111.996,0l0,58.628Zm648.896,207.183l38.979,0l0,-83.312l-38.979,0l0,83.312Zm-148.82,0l132.349,0l0,-83.312l-132.349,0l0,83.312Z" style="fill:#fff;fill-opacity:0.2;fill-rule:nonzero;"/></g><g id="river"><path d="M1936.6,591.636c-3.381,-0.162 -6.869,0.115 -10.399,0.85c-43.306,9.003 -85.765,28.037 -132.248,26.541c-19.737,-0.635 -38.552,-7.796 -58.893,-11.326c-17.572,-3.054 -35.794,-5.212 -52.774,-1.212c-7.607,1.792 -14.699,5.411 -20.407,10.892c-20.207,19.43 -39.229,39.944 -58.962,60.189c-40.025,41.017 -80.027,82.146 -122.298,120.598c-14.845,13.507 -29.891,27.36 -47.186,37.14c-20.768,11.788 -41.613,23.895 -64.689,30.372c-43.179,12.122 -89.373,5.35 -132.663,-6c-35.583,-9.269 -71.704,-12.872 -108.591,-6.73c-16.295,2.715 -32.733,6.419 -49.139,4.13c-30.149,-4.219 -56.028,-24.218 -78.616,-44.986c-22.341,-20.545 -42.905,-43.525 -73.55,-51.893c-29.787,-8.131 -61.212,-9.973 -91.072,-21.569c-34.31,-13.33 -63.651,-37.717 -87.765,-66.008c-19.399,-22.645 -42.956,-44.317 -73.1,-46.609c-19.745,-1.496 -38.787,8.327 -57.505,14.807c-12.807,4.431 -26.633,5.192 -40.406,6.323c-64.166,5.28 -129.713,2 -190.471,-14.626c-35.068,-9.592 -68.789,-24.234 -96.549,-48.413c-31.572,-27.499 -59.574,-59.39 -84.834,-93.123c-15.419,-20.591 -29.38,-42.513 -47.144,-60.816c-7.619,-7.85 -16.315,-14.957 -26.683,-18.418c0,0 -1.885,0.115 -1.493,-2.985l0.458,-0.8c0.723,-0.557 0.735,-0.565 1.615,-0.807c0,0 3.462,0.965 5.908,2.073c15.522,7.015 27.141,20.656 37.721,34.033c25.383,32.098 48.028,66.304 76.031,96.799c18.383,20.018 37.917,39.851 59.735,54.528c39.683,26.687 87.784,38.752 135.393,44.97c48.71,6.362 98.557,7.142 147.282,1.123c8.911,-1.103 17.679,-2.584 26.271,-5.945c16.03,-6.273 31.86,-13.55 49.571,-13.623l0.85,0c25.318,0.319 48.759,15.723 66.166,32.618c12.626,12.253 23.21,26.418 35.917,38.559c27.295,26.08 61.428,43.86 99.545,52.175c27.63,6.03 56.597,7.03 81.958,22.449c30.16,18.337 51.609,47.917 81.13,67.108c17.811,11.58 38.26,20.172 59.886,18.964c16.795,-0.938 33.179,-5.449 50.043,-7.134c33.46,-3.346 66.916,2.761 99.734,11.119c47.544,12.049 97.918,16.449 144.258,-3.327c15.984,-6.819 30.837,-15.795 45.99,-24.426c11.934,-6.892 22.111,-16.168 32.429,-25.241c66.051,-58.07 124.856,-123.563 187.199,-185.717c4.396,-4.381 8.845,-8.819 14.287,-11.719c8.058,-4.292 17.011,-6.219 26.241,-6.792c0.62,-1.269 1.62,-3.165 2.781,-4.804c35.248,-49.978 77.746,-96.06 130.632,-123.663c21.86,-11.415 43.294,-23.918 64.408,-36.675c2.292,-0.292 4.604,-0.484 6.931,-0.569c1.007,-0.035 2.015,-0.042 3.011,-0.019c-4.857,3.003 -9.688,6.015 -14.499,8.942c-18.826,11.434 -37.898,22.206 -57.67,32.502c-51.14,26.76 -91.127,70.716 -123.94,115.248c-2.15,2.923 -4.285,5.865 -6.354,8.857c7.727,-0.077 15.557,0.642 23.149,1.589c17.203,2.13 34.16,6.184 50.951,10.526c15.876,4.042 32.618,3.073 49.006,0.827c33.875,-4.642 66.315,-16.695 99.921,-24.184c4.712,-1.053 9.527,-1.765 14.292,-1.68l-0.123,0.777l-0.677,4.211Zm47.432,32.029c11.092,15.799 21.495,32.083 32.541,47.809c10.057,14.192 24.849,25.107 42.917,27.584c23.668,3.238 47.167,-5.689 68.631,-15.042c11.015,-4.804 21.911,-9.753 32.979,-14.461c20.899,-8.961 34.687,-29.079 49.533,-44.348c13.11,-13.484 28.717,-24.66 46.759,-30.006c14.907,-4.423 30.229,-6.973 45.409,-10.276c14.58,-3.173 28.579,-9.569 38.479,-22.122c19.326,-24.511 35.475,-51.771 55.247,-76.466c7.223,-9.022 15.299,-17.376 24.149,-25.037c15.591,-13.503 35.167,-21.956 57.42,-17.818c16.142,3.007 31.514,9.949 44.767,19.78c0,0 0.554,-0.27 1.292,1.83l-0.446,1.75l-0.684,0.616c-0.862,0.303 -0.873,0.303 -1.781,0.253c0,0 -5.727,-4.107 -11.423,-7.415c-20.668,-12.011 -46.013,-18.337 -66.596,-8.715c-23.322,10.908 -39.975,32.949 -54.594,52.921c-14.057,19.21 -27.171,39.179 -41.348,58.197c-7.103,9.534 -16.01,17.699 -27.367,22.195c-20.984,8.303 -43.937,8.307 -67.37,16.826c-12.688,4.615 -23.945,12.63 -33.768,22.041c-17.98,17.215 -31.794,39.141 -54.332,49.471c-25.748,11.803 -51.297,24.814 -78.638,29.629c-15.334,2.704 -31.718,2.062 -45.917,-4.757c-16.999,-8.165 -27.879,-24.691 -39.129,-41.31c-6.007,-8.861 -11.665,-18.157 -17.672,-27.098l0.688,-4.393l0.254,-1.638Zm-24.122,-224.112c6.35,-2.038 12.846,-3.596 19.526,-4.526c30.118,-4.196 60.067,-11.646 82.677,-36.71c17.876,-19.826 27.795,-45.236 36.183,-70.093c6.969,-20.53 13.638,-41.74 28.775,-57.816c6.227,-6.608 15.18,-11.057 24.276,-9.492c18.811,3.242 33.341,22.664 54.647,24.387c14.711,1.189 29.31,-5.253 44.021,-9.83c11.538,-3.565 23.188,-6.934 35.233,-8.223c6.461,-0.692 12.965,-0.85 19.464,-0.83c29.095,0.188 58.474,6.095 87.112,1.188c10.461,-1.792 18.999,-9.738 27.652,-17.149c26.145,-22.395 50.251,-48.659 83.842,-58.924c6.696,-2.046 13.653,-3.269 20.653,-3.369c0.723,-0.012 1.738,0.05 2.684,0.681c0,0 1.816,0.619 0.004,3.338c0,0 -1.004,0.65 -3.573,0.719c-20.645,0.665 -39.913,11.538 -55.835,23.214c-19.68,14.426 -36.237,32.649 -56.328,47.236c-5.831,4.235 -12.123,7.938 -19.323,9.073c-34.721,5.465 -70.934,-4.904 -107.621,-0.281c-20.318,2.562 -39.594,11.027 -59.332,15.826c-10.553,2.569 -21.718,3.108 -32.01,-1.238c-13.357,-5.642 -24.91,-15.903 -38.248,-20.203c-4.069,-1.315 -8.496,-1.758 -12.595,-0.515c-8.823,2.669 -14.6,10.795 -19.172,18.168c-16.888,27.249 -22.753,60.624 -36.383,86.911c-9.65,18.611 -22.841,35.802 -40.341,47.582c-18.972,12.777 -42.136,17.996 -64.773,20.884c-5.511,0.727 -10.938,1.904 -16.276,3.446c-1.619,-1.2 -3.266,-2.354 -4.939,-3.454" style="fill:#00aeef;fill-rule:nonzero;"/></g><g><path d="M1142.33,416.022l-6.456,-5.569l-1.364,0.172l1.831,14.51c1.261,-0.159 2.521,-0.318 3.782,-0.477l-0.813,-6.449l3.465,2.839l0.414,-0.052l2.673,-3.613l0.813,6.448c1.261,-0.159 2.522,-0.318 3.783,-0.477l-1.831,-14.51l-1.323,0.167l-4.974,7.011Z" style="fill:#9ca6d9;fill-rule:nonzero;"/><path d="M1157.65,418.967l-1.182,-7.975l1.69,-0.251c-0.184,-1.236 -0.297,-1.999 -0.477,-3.214c-2.349,0.348 -4.678,0.693 -7.027,1.041c0.18,1.216 0.293,1.978 0.476,3.215l1.69,-0.251l1.182,7.976l-1.834,0.272c0.18,1.216 0.293,1.978 0.479,3.235c2.453,-0.363 4.864,-0.721 7.316,-1.084c-0.186,-1.257 -0.299,-2.02 -0.479,-3.236l-1.834,0.272Z" style="fill:#9ca6d9;fill-rule:nonzero;"/><path d="M1163.47,406.596c-1.254,0.207 -2.467,0.407 -3.7,0.611l2.376,14.388c2.919,-0.482 5.961,-0.984 8.921,-1.473c-0.204,-1.233 -0.343,-2.076 -0.547,-3.309l-5.221,0.862c-1.011,-6.125 -0.6,-3.638 -1.829,-11.079Z" style="fill:#9ca6d9;fill-rule:nonzero;"/><path d="M1177.21,415.741l-1.375,-7.944l1.683,-0.291c-0.213,-1.232 -0.344,-1.991 -0.554,-3.203c-2.34,0.405 -4.66,0.807 -7,1.212c0.21,1.211 0.341,1.97 0.554,3.202l1.684,-0.291l1.374,7.944l-1.827,0.316c0.21,1.212 0.342,1.971 0.558,3.223c2.443,-0.422 4.845,-0.838 7.288,-1.261c-0.217,-1.252 -0.348,-2.012 -0.558,-3.223l-1.827,0.316Z" style="fill:#9ca6d9;fill-rule:nonzero;"/><path d="M1182.33,406.73l2.014,11.068c1.209,-0.22 2.419,-0.44 3.628,-0.66l-2.015,-11.068l3.505,-0.638c-0.201,-1.107 -0.399,-2.193 -0.597,-3.28l-10.658,1.94c0.198,1.087 0.396,2.173 0.597,3.28l3.526,-0.642Z" style="fill:#9ca6d9;fill-rule:nonzero;"/><path d="M1201.91,414.494l3.58,-0.691l-0.103,-0.532l-9.161,-12.724l-1.575,0.305l-3.746,15.215l0.102,0.532l3.58,-0.692l0.491,-1.962l5.646,-1.089l1.186,1.638Zm-3.001,-4.556l-3.232,0.624l0.869,-4.072l2.363,3.448Z" style="fill:#9ca6d9;fill-rule:nonzero;"/><path d="M1215.41,406.474c3.103,-3.197 0.683,-9.737 -4.931,-8.595c-2.08,0.431 -4.202,0.871 -6.262,1.298c0.989,4.774 1.974,9.527 2.959,14.28c1.184,-0.245 2.428,-0.503 3.652,-0.757l-0.871,-4.202l1.897,-0.394l3.319,3.695l4.08,-0.845l-0.11,-0.531l-3.733,-3.949Zm-3.523,-1.802l-2.611,0.541c-0.237,-1.142 -0.49,-2.366 -0.731,-3.529c0.856,-0.177 1.75,-0.384 2.611,-0.541c2.085,-0.411 2.71,3.119 0.731,3.529Z" style="fill:#9ca6d9;fill-rule:nonzero;"/><path d="M1226.53,403.088l3.105,-8.768l-0.121,-0.55l-3.947,0.869l-1.541,5.309l-0.142,0.032l-3.628,-4.173l-3.926,0.864l0.12,0.55l6.478,6.659l1.317,5.982l3.601,-0.792l-1.316,-5.982Z" style="fill:#9ca6d9;fill-rule:nonzero;"/><path d="M1248.98,404.154l3.545,-0.85l-0.127,-0.527l-9.722,-12.3l-1.56,0.375l-3.06,15.367l0.126,0.527l3.545,-0.851l0.403,-1.982l5.591,-1.342l1.259,1.583Zm-3.203,-4.416l-3.201,0.768l0.686,-4.106l2.515,3.338Z" style="fill:#9ca6d9;fill-rule:nonzero;"/><path d="M1262.1,395.525c2.952,-3.337 0.233,-9.759 -5.323,-8.358c-2.058,0.527 -4.157,1.064 -6.196,1.586c1.209,4.723 2.413,9.425 3.617,14.128c1.171,-0.3 2.402,-0.615 3.613,-0.925l-1.064,-4.158l1.877,-0.48l3.486,3.537l4.036,-1.033l-0.134,-0.525l-3.912,-3.772Zm-3.602,-1.637l-2.583,0.661c-0.29,-1.13 -0.6,-2.341 -0.894,-3.491c0.847,-0.217 1.73,-0.465 2.583,-0.662c2.064,-0.507 2.852,2.99 0.894,3.492Z" style="fill:#9ca6d9;fill-rule:nonzero;"/><path d="M1273.14,382.832c-3.299,0.89 -5.531,1.493 -8.79,2.372c1.26,4.666 2.53,9.373 3.8,14.08c3.258,-0.88 5.672,-1.531 8.971,-2.421c-0.288,-1.066 -0.581,-2.152 -0.864,-3.198c-2.111,0.57 -3.318,0.895 -5.39,1.454c-0.228,-0.844 -0.445,-1.649 -0.668,-2.474l4.787,-1.291c-0.287,-1.066 -0.575,-2.133 -0.863,-3.199l-4.787,1.292l-0.537,-1.991c2.072,-0.559 3.118,-0.841 5.209,-1.406c-0.293,-1.086 -0.586,-2.172 -0.868,-3.218Z" style="fill:#9ca6d9;fill-rule:nonzero;"/><path d="M1288.98,393.521l3.507,-0.997l-0.148,-0.521l-10.223,-11.887l-1.543,0.438l-2.422,15.482l0.148,0.521l3.507,-0.997l0.321,-1.997l5.53,-1.572l1.323,1.53Zm-3.382,-4.28l-3.166,0.9l0.515,-4.132l2.651,3.232Z" style="fill:#9ca6d9;fill-rule:nonzero;"/><path d="M1297.71,385.462l-0.439,-1.44l8.64,-2.634l0.44,1.44l-8.641,2.634Z" style="fill:#9ca6d9;fill-rule:nonzero;"/><path d="M1317.06,369.647l-5.229,1.704l4.518,13.866l5.229,-1.704c9.02,-2.983 4.528,-16.77 -4.518,-13.866Zm-0.632,3.777l1.684,-0.548c4.417,-1.44 6.831,5.969 2.414,7.408l-1.684,0.549l-2.414,-7.409Z" style="fill:#9ca6d9;fill-rule:nonzero;"/><path d="M1341.82,369.045c-3.257,-9.543 -17.414,-4.71 -14.156,4.832c3.264,9.563 17.42,4.73 14.156,-4.832Zm-10.528,3.594c-1.696,-4.969 5.224,-7.331 6.92,-2.363c1.71,5.008 -5.211,7.371 -6.92,2.363Z" style="fill:#9ca6d9;fill-rule:nonzero;"/><path d="M1362.57,369.369l1.254,-0.452l-4.954,-13.739c-1.196,0.432 -2.391,0.863 -3.587,1.294l2.424,6.722l-9.383,-4.279l-1.273,0.459l4.968,13.778c1.196,-0.431 2.411,-0.87 3.626,-1.308l-2.432,-6.741l9.357,4.266Z" style="fill:#9ca6d9;fill-rule:nonzero;"/><path d="M1377.83,355.949c-3.513,-9.452 -17.534,-4.24 -14.021,5.211c3.52,9.472 17.541,4.26 14.021,-5.211Zm-10.428,3.876c-1.829,-4.921 5.025,-7.469 6.854,-2.548c1.844,4.96 -5.011,7.508 -6.854,2.548Z" style="fill:#9ca6d9;fill-rule:nonzero;"/><path d="M1380.96,350.503l3.978,10.523c1.15,-0.434 2.3,-0.869 3.449,-1.304l-3.978,-10.523l3.332,-1.259c-0.397,-1.053 -0.788,-2.086 -1.178,-3.118l-10.134,3.83c0.391,1.033 0.781,2.066 1.179,3.118l3.352,-1.267Z" style="fill:#9ca6d9;fill-rule:nonzero;"/><path d="M1395.82,349.1c1.783,4.627 6.177,5.63 9.636,4.291c2.901,-1.104 5.38,-3.786 4.419,-7.834c-1.188,0.452 -2.259,0.86 -3.427,1.304c0.186,1.601 -0.72,2.793 -2.2,3.357c-2.071,0.766 -4.062,-0.483 -4.826,-2.488c-0.859,-2.259 -0.101,-4.309 1.943,-5.087c1.461,-0.555 2.73,-0.325 3.743,0.872c1.187,-0.452 2.239,-0.852 3.426,-1.304c-1.911,-3.441 -5.553,-3.816 -8.377,-2.741c-3.465,1.319 -6.081,4.989 -4.337,9.63Z" style="fill:#9ca6d9;fill-rule:nonzero;"/><path d="M1421.58,341.61c2.571,-3.638 -0.831,-9.726 -6.201,-7.729c-1.989,0.748 -4.017,1.51 -5.986,2.251c1.715,4.563 3.424,9.106 5.132,13.65c1.132,-0.425 2.321,-0.873 3.491,-1.313l-1.511,-4.017l1.814,-0.681l3.851,3.137l3.9,-1.467l-0.191,-0.507l-4.299,-3.324Zm-3.759,-1.236l-2.496,0.939c-0.411,-1.092 -0.851,-2.262 -1.269,-3.374c0.819,-0.308 1.67,-0.65 2.496,-0.938c1.997,-0.729 3.16,2.662 1.269,3.373Z" style="fill:#9ca6d9;fill-rule:nonzero;"/><path d="M1439.01,332.946c-3.463,-9.47 -17.512,-4.333 -14.049,5.137c3.471,9.49 17.519,4.353 14.049,-5.137Zm-10.448,3.821c-1.804,-4.931 5.064,-7.442 6.867,-2.512c1.818,4.97 -5.05,7.482 -6.867,2.512Z" style="fill:#9ca6d9;fill-rule:nonzero;"/><path d="M1445.3,333.721c-1.199,0.419 -2.222,0.775 -3.402,1.187c2.035,6.086 13.192,2.017 11.174,-3.767c-1.201,-3.442 -4,-2.862 -6.837,-2.203c-1.287,0.294 -2.386,0.435 -2.671,-0.635c-0.451,-1.674 3.192,-3.122 3.83,-1.292c1.2,-0.419 2.105,-0.735 3.344,-1.167c-1.994,-5.968 -12.695,-2.234 -10.504,3.665c1.083,2.976 3.407,3.313 6.472,2.486c1.404,-0.402 2.6,-0.643 2.937,0.321c0.562,1.613 -3.732,3.156 -4.343,1.405Z" style="fill:#9ca6d9;fill-rule:nonzero;"/><path d="M1458.37,329.241c-1.208,0.397 -2.237,0.735 -3.424,1.126c1.924,6.121 13.153,2.255 11.241,-3.563c-1.139,-3.464 -3.947,-2.936 -6.796,-2.328c-1.292,0.271 -2.393,0.392 -2.659,-0.683c-0.421,-1.682 3.248,-3.063 3.853,-1.223c1.207,-0.397 2.118,-0.696 3.365,-1.106c-1.886,-6.003 -12.652,-2.464 -10.569,3.474c1.028,2.995 3.346,3.374 6.425,2.603c1.412,-0.376 2.612,-0.595 2.931,0.375c0.533,1.623 -3.788,3.087 -4.367,1.325Z" style="fill:#9ca6d9;fill-rule:nonzero;"/></g><g><path d="M817.035,805.807c5.789,-2.322 6.419,-12.065 -1.412,-13.8c-2.907,-0.634 -5.871,-1.279 -8.749,-1.906c-1.452,6.669 -2.899,13.309 -4.345,19.949c1.653,0.36 3.391,0.739 5.101,1.111l1.279,-5.871l2.65,0.578l2.142,6.615l5.699,1.241l0.162,-0.74l-2.527,-7.177Zm-3.479,-4.31l-3.648,-0.795c0.348,-1.596 0.72,-3.306 1.074,-4.93c1.197,0.261 2.457,0.505 3.648,0.794c2.901,0.662 1.69,5.533 -1.074,4.931Z" style="fill:#9ca6d9;fill-rule:nonzero;"/><path d="M830.77,811.022l2.098,-11.09l2.35,0.444c0.325,-1.719 0.526,-2.78 0.846,-4.471c-3.267,-0.618 -6.506,-1.23 -9.773,-1.848c-0.32,1.691 -0.52,2.751 -0.845,4.471l2.35,0.444l-2.098,11.091l-2.551,-0.483c-0.32,1.691 -0.52,2.752 -0.851,4.5c3.41,0.645 6.763,1.279 10.174,1.924c0.33,-1.748 0.531,-2.808 0.851,-4.499l-2.551,-0.483Z" style="fill:#9ca6d9;fill-rule:nonzero;"/><path d="M843.959,797.421l-4.922,-0.971l-0.152,0.773l4.741,21.18l2.175,0.429l12.342,-17.811l0.152,-0.773l-4.922,-0.971l-6.818,10.458l-0.143,-0.028l-2.453,-12.286Z" style="fill:#9ca6d9;fill-rule:nonzero;"/><path d="M875.546,803.967c-4.674,-1.019 -7.837,-1.708 -12.454,-2.714c-1.44,6.611 -2.893,13.28 -4.346,19.949c4.616,1.005 8.036,1.751 12.71,2.769c0.329,-1.51 0.664,-3.049 0.987,-4.531c-2.992,-0.652 -4.702,-1.025 -7.637,-1.664c0.261,-1.197 0.509,-2.337 0.763,-3.506l6.783,1.478c0.329,-1.51 0.658,-3.021 0.987,-4.531l-6.782,-1.478l0.615,-2.821c2.935,0.639 4.417,0.962 7.381,1.608c0.335,-1.539 0.67,-3.078 0.993,-4.559Z" style="fill:#9ca6d9;fill-rule:nonzero;"/><path d="M891.875,821.561c5.871,-2.104 6.864,-11.817 -0.897,-13.843c-2.882,-0.741 -5.819,-1.496 -8.672,-2.23c-1.7,6.61 -3.393,13.192 -5.085,19.773c1.638,0.422 3.361,0.865 5.056,1.301l1.497,-5.819l2.627,0.675l1.893,6.691l5.649,1.453l0.189,-0.735l-2.257,-7.266Zm-3.316,-4.436l-3.616,-0.93c0.407,-1.582 0.843,-3.277 1.257,-4.887c1.186,0.305 2.436,0.596 3.615,0.93c2.874,0.769 1.484,5.591 -1.256,4.887Z" style="fill:#9ca6d9;fill-rule:nonzero;"/><path d="M903.747,826.022c-1.694,-0.546 -3.137,-1.011 -4.803,-1.548c-2.866,8.515 13.029,13.392 15.659,5.23c1.565,-4.858 -2.049,-6.575 -5.774,-8.234c-1.686,-0.758 -3.031,-1.529 -2.446,-2.964c0.909,-2.251 6.2,-0.791 5.368,1.791c1.693,0.545 2.97,0.957 4.719,1.52c2.813,-8.348 -12.289,-13.214 -14.824,-4.777c-1.304,4.238 1.007,6.576 5.128,8.241c1.907,0.737 3.446,1.478 3.008,2.839c-0.734,2.276 -6.832,0.372 -6.035,-2.098Z" style="fill:#9ca6d9;fill-rule:nonzero;"/><path d="M925.035,835.526l4.308,-10.434l2.21,0.913c0.668,-1.618 1.08,-2.615 1.737,-4.206c-3.074,-1.269 -6.12,-2.526 -9.194,-3.795c-0.656,1.59 -1.068,2.588 -1.736,4.206l2.211,0.912l-4.307,10.434l-2.4,-0.991c-0.657,1.591 -1.068,2.588 -1.747,4.233c3.208,1.324 6.362,2.626 9.57,3.951c0.679,-1.645 1.091,-2.642 1.748,-4.233l-2.4,-0.99Z" style="fill:#9ca6d9;fill-rule:nonzero;"/><path d="M947.084,828.798l-6.66,-3.865l-10.247,17.659l6.66,3.864c11.533,6.625 21.721,-10.933 10.247,-17.658Zm-4.53,2.867l2.144,1.245c5.626,3.264 0.151,12.699 -5.475,9.434l-2.144,-1.244l5.475,-9.435Z" style="fill:#9ca6d9;fill-rule:nonzero;"/><path d="M973.069,848.559c-3.505,-3.256 -5.877,-5.459 -9.339,-8.674c-4.605,4.958 -9.25,9.959 -13.894,14.96c3.462,3.215 6.027,5.597 9.532,8.852c1.052,-1.132 2.123,-2.286 3.155,-3.398c-2.244,-2.084 -3.526,-3.275 -5.727,-5.319c0.833,-0.898 1.627,-1.753 2.441,-2.629l5.087,4.724c1.052,-1.133 2.104,-2.265 3.155,-3.398l-5.086,-4.724l1.965,-2.116c2.201,2.045 3.313,3.077 5.535,5.141c1.072,-1.154 2.144,-2.308 3.176,-3.419Z" style="fill:#9ca6d9;fill-rule:nonzero;"/><path d="M989.746,867.97l-10.199,5.035l-0.061,-0.064l1.883,-3.052l3.75,-7.22l-3.65,-3.815l-0.569,0.545l-9.371,18.895l1.996,2.086l9.36,-4.434l0.061,0.063l-4.844,9.155l2.076,2.171l19.231,-8.589l0.569,-0.544l-3.589,-3.752l-7.358,3.447l-3.133,1.746l-0.061,-0.063l5.441,-10.008c-0.564,-0.59 -0.968,-1.012 -1.532,-1.602Z" style="fill:#9ca6d9;fill-rule:nonzero;"/><path d="M997.225,901.596l4.014,3.153l0.468,-0.597l5.056,-21.359l-1.766,-1.387l-19.53,9.992l-0.468,0.596l4.014,3.153l2.526,-1.28l6.33,4.972l-0.644,2.757Zm2.065,-7.352l-3.624,-2.847l5.104,-2.815l-1.48,5.662Z" style="fill:#9ca6d9;fill-rule:nonzero;"/><path d="M1018.24,890.81c-1.55,-0.874 -3.049,-1.719 -4.574,-2.578l-10.025,17.785c3.608,2.034 7.368,4.154 11.027,6.216c0.859,-1.524 1.446,-2.566 2.306,-4.09l-6.454,-3.638c4.268,-7.572 2.535,-4.498 7.72,-13.695Z" style="fill:#9ca6d9;fill-rule:nonzero;"/><path d="M1022.86,915.818l2.751,-7.285c0.628,0.237 1.228,0.463 1.924,0.602l1.409,8.981l5.43,2.051l0.289,-0.764l-2.01,-10.362c4.709,-0.996 5.96,-4.639 7.434,-8.541c-1.692,-0.639 -3.356,-1.267 -5.02,-1.896c-1.35,3.574 -2.486,7.323 -7.37,5.479l-0.355,-0.134l2.731,-7.231c-1.691,-0.639 -3.328,-1.257 -4.966,-1.875l-7.213,19.099c1.637,0.619 3.274,1.237 4.966,1.876Z" style="fill:#9ca6d9;fill-rule:nonzero;"/></g><g><path d="M2141.33,816.933l-7.681,-0.543l-1.439,20.366l7.681,0.543c13.271,0.879 14.702,-19.37 1.439,-20.366Zm-2.808,4.568l2.473,0.174c6.488,0.459 5.719,11.34 -0.769,10.881l-2.473,-0.174l0.769,-10.881Z" style="fill:#9ca6d9;fill-rule:nonzero;"/><path d="M2160.2,834.146l0.799,-11.259l2.385,0.17c0.124,-1.746 0.201,-2.823 0.322,-4.539c-3.316,-0.235 -6.604,-0.469 -9.92,-0.704c-0.122,1.717 -0.199,2.793 -0.322,4.539l2.385,0.169l-0.799,11.259l-2.589,-0.184c-0.122,1.717 -0.198,2.793 -0.324,4.568c3.462,0.246 6.866,0.487 10.328,0.733c0.126,-1.775 0.202,-2.851 0.324,-4.568l-2.589,-0.184Z" style="fill:#9ca6d9;fill-rule:nonzero;"/><path d="M2179.59,832.865c5.398,-3.124 4.63,-12.857 -3.369,-13.457c-2.967,-0.211 -5.993,-0.427 -8.931,-0.636c-0.485,6.807 -0.969,13.586 -1.452,20.365c1.688,0.12 3.462,0.246 5.208,0.371l0.427,-5.993l2.706,0.193l3.064,6.242l5.818,0.414l0.054,-0.756l-3.525,-6.743Zm-4.059,-3.769l-3.724,-0.265c0.116,-1.629 0.24,-3.375 0.359,-5.033c1.221,0.087 2.504,0.149 3.723,0.265c2.966,0.241 2.464,5.234 -0.358,5.033Z" style="fill:#9ca6d9;fill-rule:nonzero;"/><path d="M2200.35,821.134c-4.771,-0.342 -8,-0.573 -12.713,-0.911c-0.484,6.75 -0.972,13.557 -1.46,20.365c4.713,0.337 8.204,0.588 12.975,0.93c0.111,-1.542 0.224,-3.113 0.332,-4.626c-3.055,-0.219 -4.8,-0.344 -7.797,-0.559c0.088,-1.222 0.171,-2.385 0.257,-3.578l6.924,0.496c0.11,-1.542 0.221,-3.084 0.331,-4.625l-6.924,-0.497l0.207,-2.88c2.996,0.215 4.509,0.323 7.535,0.54c0.112,-1.571 0.225,-3.142 0.333,-4.655Z" style="fill:#9ca6d9;fill-rule:nonzero;"/><path d="M2203.16,831.57c-0.471,6.926 4.513,10.795 9.693,11.14c4.335,0.313 9.066,-1.626 10.238,-7.332c-1.774,-0.128 -3.374,-0.244 -5.12,-0.37c-0.71,2.142 -2.564,3.12 -4.775,2.96c-3.082,-0.252 -4.871,-3.013 -4.654,-6.009c0.243,-3.375 2.417,-5.528 5.471,-5.307c2.182,0.157 3.657,1.199 4.235,3.317c1.774,0.129 3.345,0.242 5.12,0.37c-0.393,-5.497 -4.794,-8.125 -9.012,-8.429c-5.179,-0.374 -10.667,2.738 -11.196,9.66Z" style="fill:#9ca6d9;fill-rule:nonzero;"/><path d="M2230.65,828.004l-1.145,15.709c1.716,0.125 3.432,0.25 5.148,0.375l1.146,-15.708l4.974,0.363c0.115,-1.571 0.227,-3.113 0.34,-4.655l-15.127,-1.103c-0.112,1.542 -0.225,3.084 -0.339,4.655l5.003,0.364Z" style="fill:#9ca6d9;fill-rule:nonzero;"/><path d="M2249.69,840.6l0.83,-11.257l2.385,0.176c0.128,-1.745 0.208,-2.821 0.334,-4.538c-3.316,-0.244 -6.603,-0.486 -9.919,-0.73c-0.126,1.716 -0.206,2.792 -0.334,4.537l2.385,0.176l-0.829,11.257l-2.589,-0.191c-0.126,1.717 -0.206,2.793 -0.336,4.567c3.461,0.255 6.864,0.506 10.326,0.761c0.131,-1.774 0.21,-2.851 0.336,-4.567l-2.589,-0.191Z" style="fill:#9ca6d9;fill-rule:nonzero;"/><path d="M2275.75,836.929c1.056,-14.077 -19.827,-15.643 -20.883,-1.565c-1.057,14.106 19.826,15.671 20.883,1.565Zm-15.531,-1.164c0.549,-7.33 10.758,-6.564 10.209,0.765c-0.554,7.388 -10.763,6.622 -10.209,-0.765Z" style="fill:#9ca6d9;fill-rule:nonzero;"/><path d="M2294.53,848.635l1.861,0.147l1.604,-20.383c-1.774,-0.139 -3.547,-0.279 -5.321,-0.419l-0.785,9.974l-9.501,-10.871l-1.89,-0.149l-1.609,20.441c1.773,0.14 3.576,0.281 5.379,0.423l0.787,-10.002l9.475,10.839Z" style="fill:#9ca6d9;fill-rule:nonzero;"/><path d="M2323.83,844.97c5.668,-2.603 5.818,-12.366 -2.089,-13.714c-2.934,-0.49 -5.926,-0.989 -8.832,-1.473c-1.123,6.732 -2.241,13.435 -3.359,20.138c1.669,0.278 3.424,0.571 5.15,0.859l0.988,-5.926l2.676,0.446l2.463,6.502l5.754,0.96l0.125,-0.748l-2.876,-7.044Zm-3.687,-4.134l-3.682,-0.614c0.269,-1.611 0.557,-3.337 0.83,-4.977c1.208,0.201 2.479,0.384 3.683,0.614c2.929,0.518 1.96,5.443 -0.831,4.977Z" style="fill:#9ca6d9;fill-rule:nonzero;"/><path d="M2346.4,836.128c-4.678,-1 -7.844,-1.676 -12.464,-2.664c-1.415,6.617 -2.841,13.292 -4.267,19.966c4.62,0.987 8.043,1.719 12.721,2.719c0.323,-1.512 0.652,-3.052 0.969,-4.536c-2.995,-0.64 -4.706,-1.005 -7.644,-1.633c0.256,-1.198 0.5,-2.339 0.75,-3.509l6.788,1.451c0.323,-1.511 0.646,-3.023 0.969,-4.535l-6.788,-1.451l0.603,-2.823c2.938,0.628 4.421,0.945 7.388,1.578c0.329,-1.54 0.658,-3.08 0.975,-4.563Z" style="fill:#9ca6d9;fill-rule:nonzero;"/><path d="M2359.35,860.294l4.952,1.237l0.183,-0.736l-4.114,-21.561l-2.179,-0.544l-13.741,17.1l-0.184,0.736l4.952,1.237l1.782,-2.2l7.81,1.951l0.539,2.78Zm-1.12,-7.555l-4.47,-1.117l3.507,-4.655l0.963,5.772Z" style="fill:#9ca6d9;fill-rule:nonzero;"/><path d="M2377.49,844.07c-1.712,-0.484 -3.368,-0.953 -5.052,-1.429l-5.56,19.645c3.985,1.127 8.139,2.303 12.18,3.447c0.477,-1.684 0.802,-2.835 1.279,-4.519l-7.128,-2.017c2.367,-8.363 1.406,-4.967 4.281,-15.127Z" style="fill:#9ca6d9;fill-rule:nonzero;"/><path d="M2389.59,864.152l3.295,-10.796l2.287,0.698c0.511,-1.674 0.826,-2.706 1.329,-4.352c-3.181,-0.971 -6.333,-1.933 -9.513,-2.903c-0.502,1.646 -0.817,2.678 -1.328,4.352l2.287,0.698l-3.295,10.796l-2.483,-0.758c-0.502,1.646 -0.817,2.678 -1.336,4.38c3.319,1.013 6.583,2.009 9.903,3.022c0.519,-1.702 0.834,-2.734 1.337,-4.38l-2.483,-0.757Z" style="fill:#9ca6d9;fill-rule:nonzero;"/><path d="M2402.18,856.428l-4.928,14.959c1.634,0.539 3.269,1.077 4.903,1.616l4.928,-14.959l4.737,1.56c0.493,-1.496 0.977,-2.964 1.461,-4.432l-14.406,-4.746c-0.483,1.468 -0.967,2.937 -1.46,4.432l4.765,1.57Z" style="fill:#9ca6d9;fill-rule:nonzero;"/><path d="M2422.64,871.08l10.229,-8.058l0.267,-0.741l-5.322,-1.922l-5.792,5.133l-0.192,-0.069l-1.176,-7.65l-5.294,-1.912l-0.268,0.741l2.692,12.725l-2.913,8.065l4.856,1.753l2.913,-8.065Z" style="fill:#9ca6d9;fill-rule:nonzero;"/></g><path d="M2444.41,883.343l-0.057,-0.052l27.963,16.193l-13.893,3.719c-0.679,0.181 -1.253,0.627 -1.607,1.239c-0.354,0.611 -0.453,1.327 -0.272,2.007l0.575,2.161c0.181,0.679 0.617,1.249 1.228,1.602c0.611,0.355 1.322,0.451 2.001,0.27l23.794,-6.341c0.682,-0.182 1.251,-0.62 1.604,-1.233c0.358,-0.615 0.455,-1.327 0.273,-2.008l-6.342,-23.795c-0.181,-0.679 -0.618,-1.247 -1.23,-1.602c-0.611,-0.354 -1.321,-0.449 -2,-0.268l-2.16,0.576c-0.679,0.18 -1.248,0.617 -1.602,1.228c-0.354,0.612 -0.432,1.292 -0.251,1.971l3.76,14.007l-28.028,-16.232c-1.26,-0.729 -2.947,-0.256 -3.676,1.002l-1.121,1.936c-0.729,1.259 -0.218,2.89 1.041,3.62Z" style="fill:#9ca6d9;fill-rule:nonzero;"/><g id="Layer-12" serif:id="Layer 1"><path d="M1977.3,455.523c3.118,7.241 5.261,14.857 6.253,22.604c1.524,11.862 -1.278,23.962 -3.216,36.11c-8.715,54.722 -17.948,109.403 -25.884,164.06c-1.842,12.907 -3.247,27.305 3.96,38.128c1.227,1.845 3.327,3.316 3.327,3.316c28.572,19.242 60.331,34.415 93.504,44.501c23.48,7.145 48.396,9.191 73.115,11.827c64.361,6.871 129.035,9.168 194.179,17.887c54.422,7.284 107.176,24.924 156.722,48.694c14.324,6.878 28.359,14.386 41.881,22.735l1.142,0.714l2.579,2.169c1.632,2.463 2.381,3.015 2.864,6.03c1.227,7.758 -6.794,15.501 -14.869,13.255c-2.69,-0.745 -4.991,-2.544 -7.473,-4.049c-51.978,-31.309 -110.375,-52.619 -169.278,-63.485c-32.173,-5.933 -64.99,-7.836 -97.742,-10.534c-52.623,-4.315 -105.543,-7.311 -157.826,-15.702c-46.655,-7.485 -91.269,-27.73 -130.351,-53.283c0,0 -5.427,-3.416 -8.673,-7.226c-13.78,-16.166 -13.128,-40.329 -10.179,-60.532c8.589,-58.86 18.686,-117.458 27.861,-176.369c1.645,-10.58 0.599,-21.411 -3.728,-31.385c-9.133,-21.064 -29.17,-37.21 -52.777,-39.978c-23.84,-2.791 -47.659,6.388 -68.144,16.548c-47.601,23.642 -94.619,48.647 -141.313,74.065c-9.928,5.392 -19.709,11.259 -30.139,15.408c-10.588,4.216 -22.499,5.03 -33.744,-1.509c-1.069,-0.621 -2.119,-1.27 -3.184,-1.899c-7.38,-4.319 -16.98,0.479 -25.48,4.675c-48.419,23.893 -96.896,48.068 -146.018,70.201c-7.295,3.284 -14.502,6.936 -22.172,9.128c-0.208,0.066 -0.416,0.135 -0.625,0.205c-12.367,3.864 -25.657,3.64 -38.14,0.351c-18.532,-4.875 -35.589,-14.293 -55.271,-16.964l-0.112,-0.012c-85.733,-0.641 -172.007,-0.726 -257.019,-4.474c-13.88,-0.609 -27.738,-1.262 -41.614,-0.764c-39.229,1.409 -77.659,10.715 -116.899,15.131c-24.36,2.741 -48.168,8.052 -73.814,3.335c-42.703,-7.855 -80.99,-34.342 -114.463,-59.953c-34.994,-26.873 -59.532,-65.117 -77.593,-104.755c-1.278,-2.799 -2.517,-5.62 -3.675,-8.473l-0.204,-0.505l-0.795,-3.274c0.088,-1.818 0.019,-2.852 0.278,-4.01c-6.045,-13.054 -14.854,-25.175 -27.012,-30.718c-4.316,-1.926 -9.921,-3.01 -14.931,-4.454c-41.757,-12.008 -83.711,-22.781 -125.584,-33.674c-75.265,-19.582 -150.634,-38.774 -225.877,-57.707l-2.725,-1.161c-1.949,-1.707 -2.752,-2 -3.752,-4.493c-1.451,-3.617 -0.339,-8.245 2.718,-10.797c2.061,-1.725 2.906,-1.606 5.431,-2.181c0.984,0.085 1.965,0.174 2.949,0.263c111.302,28.008 222.067,55.552 332.721,86.108c11.938,3.296 24.024,6.083 35.727,10.341c10.99,3.995 22.512,15.802 29.842,26.961c3.014,4.59 5.766,9.376 8.075,14.344c1.216,0.668 2.319,1.579 3.234,2.741c1.332,1.694 2,3.728 2.872,5.778c16.258,37.909 38.692,74.146 71.359,99.83c23.272,18.3 47.783,35.419 74.771,46.906c19.115,8.141 39.955,12.75 60.961,11.071c12.88,-1.027 25.634,-3.725 38.499,-5.246c34.894,-4.231 69.344,-12.101 104.385,-14.421c33.076,-2.192 66.175,0.687 99.062,1.521c69.718,1.775 139.317,2.466 208.87,3.018l2.787,0.024l3.014,0.023c18.524,2.354 35.72,9.893 53.48,15.837c10.368,3.466 21.315,5.145 32.138,1.61c7.6,-2.177 14.749,-5.972 22.064,-9.295c48.743,-22.125 96.699,-45.968 144.644,-69.649c11.294,-5.582 23.576,-10.549 36.063,-7.168c4.818,1.305 9.118,4.018 13.418,6.461c6.789,3.799 15.918,-1.617 24.124,-5.905c26.796,-14.008 53.241,-28.969 80.056,-43.124c19.164,-10.121 38.437,-20.056 57.795,-29.814c27.568,-13.892 55.344,-28.514 86.274,-29.602c1.494,-0.054 2.98,-0.073 4.466,-0.066c19.319,0.174 38.487,6.076 53.858,17.694c6.237,4.717 11.865,10.276 16.713,16.436c0.494,-0.328 1.016,-0.629 1.564,-0.899c0.517,-0.282 1.065,-0.529 1.644,-0.741c0.405,-0.147 0.807,-0.29 1.212,-0.437c27.159,-9.661 55.614,-17.516 84.143,-17.933c0.626,-0.008 1.255,-0.011 1.884,-0.011c2.733,0.015 2.953,0.065 3.729,0.204c6.932,1.243 11.761,9.627 8.735,16.447c-2.177,4.918 -7.608,7.01 -13.286,7.025c-11.047,0.078 -22.06,1.429 -32.949,3.629c10.746,6.863 19.948,16.744 26.534,29.058c0,0 1.474,2.991 1.52,5.608c0.147,8.287 -10.503,15.108 -18.203,10.187c-1.096,-0.699 -2.073,-1.575 -2.88,-2.587c-1.768,-2.211 -4.18,-7.337 -7.202,-11.271c-5.37,-6.978 -12.553,-12.641 -20.848,-15.598c-7.427,-2.648 -15.621,-3.574 -23.337,-2.115m-27.163,284.942l0.668,0.309c0,0 -1.347,-0.753 -0.668,-0.309" style="fill:#9ca6d9;fill-rule:nonzero;"/><g><path d="M1416.86,749.041c17.443,0.152 33.899,13.569 37.14,31.064c2.263,12.217 -1.929,25.472 -10.829,34.159c-10.482,10.231 -27.099,13.663 -40.925,8.005c-15.054,-6.159 -25.103,-22.818 -23.456,-39.086c1.835,-18.135 18.182,-33.714 37.089,-34.136c0.327,-0.005 0.654,-0.007 0.981,-0.006Zm-0.463,4.167c-15.462,0.147 -29.964,11.982 -32.99,27.241c-4.184,21.099 15.377,44.354 39.406,39.901c13.772,-2.552 25.267,-14.482 27.299,-28.345c2.752,-18.783 -12.499,-38.34 -32.841,-38.792c-0.292,-0.005 -0.583,-0.006 -0.874,-0.005Z" style="fill:#fff;fill-rule:nonzero;"/><path d="M1411.98,797.051c-0.531,0.056 -1.43,0.128 -2.552,0.128c-2.867,0 -7.172,-0.473 -10.398,-2.893c-2.823,1.43 -5.057,3.79 -6.046,4.943c1.475,1.721 5.723,6.126 10.559,6.126c4.852,0 9.09,-4.404 10.56,-6.125c-0.459,-0.537 -1.189,-1.335 -2.123,-2.179Zm22.181,-2.776c-3.228,2.429 -7.541,2.904 -10.413,2.904c-1.099,0 -1.985,-0.069 -2.52,-0.125c-0.931,0.843 -1.66,1.639 -2.119,2.175c1.475,1.721 5.723,6.126 10.559,6.126c4.852,0 9.09,-4.404 10.56,-6.125c-0.99,-1.156 -3.234,-3.525 -6.067,-4.955Zm-17.537,-25.605c-2.075,1.743 -8.205,7.446 -8.205,14.008c0,6.561 6.13,12.265 8.205,14.008c2.074,-1.742 8.205,-7.446 8.205,-14.008c0,-6.562 -6.13,-12.266 -8.205,-14.008Zm5.25,26.029c0.003,0.045 0.006,0.09 0.009,0.132c2.259,0.174 8.378,0.285 11.798,-3.135c3.431,-3.43 3.313,-9.541 3.136,-11.798c-1.859,-0.143 -6.336,-0.242 -9.769,1.636c0.033,0.377 0.051,0.758 0.051,1.144c0,4.802 -2.67,9.053 -5.225,12.021Zm-10.581,0.132c0.005,-0.066 0.01,-0.137 0.015,-0.21c-2.534,-2.964 -5.159,-7.183 -5.159,-11.943c0,-0.372 0.018,-0.741 0.049,-1.106c-3.441,-1.917 -7.964,-1.818 -9.838,-1.674c-0.174,2.26 -0.285,8.379 3.135,11.798c3.419,3.42 9.538,3.309 11.798,3.135Z" style="fill:#fff;fill-rule:nonzero;"/></g><g><path d="M2246.68,386.82l0,-5.221l3.762,0c9.771,0 9.771,-15.166 0,-15.196c-3.004,0 -6.037,0 -8.983,0c0,6.825 0,13.621 0,20.417c1.721,0 3.471,0 5.221,0Zm3.733,-9.917l-3.733,0c0,-1.662 0,-4.17 0,-5.833c1.195,0 2.508,-0.029 3.733,0c3.033,0.029 2.858,5.833 0,5.833Z" style="fill:#fff;fill-rule:nonzero;"/><path d="M2276.13,386.82l5.104,0l0,-0.758l-9.217,-19.921l-2.245,0l-9.188,19.921l0,0.758l5.104,0l1.196,-2.567l8.05,0l1.196,2.567Zm-2.917,-7.058l-4.608,0l2.275,-5.367l2.333,5.367Z" style="fill:#fff;fill-rule:nonzero;"/><path d="M2298.62,379.587c5.163,-3.5 3.705,-13.154 -4.316,-13.184c-2.975,0 -6.009,0 -8.954,0c0,6.825 0,13.621 0,20.417c1.691,0 3.47,0 5.22,0l0,-6.008l2.713,0l3.5,6.008l5.833,0l0,-0.758l-3.996,-6.475Zm-4.316,-3.471l-3.734,0c0,-1.633 0,-3.383 0,-5.046c1.225,0 2.509,-0.029 3.734,0c2.975,0.029 2.829,5.046 0,5.046Z" style="fill:#fff;fill-rule:nonzero;"/><path d="M2312.56,386.82l0,-7.787c0.671,0 1.313,0 2.013,-0.117l4.491,7.904l5.804,0l0,-0.817l-5.541,-8.983c4.054,-2.596 3.937,-6.446 3.937,-10.617c-1.808,0 -3.587,0 -5.366,0c0,3.821 0.262,7.73 -4.959,7.73l-0.379,0l0,-7.73c-1.808,0 -3.558,0 -5.308,0l0,20.417c1.75,0 3.5,0 5.308,0Z" style="fill:#fff;fill-rule:nonzero;"/><path d="M2335.4,382.241l0,-11.288l2.391,0c0,-1.75 0,-2.829 0,-4.55c-3.325,0 -6.621,0 -9.946,0c0,1.721 0,2.8 0,4.55l2.392,0l0,11.288l-2.596,0c0,1.721 0,2.8 0,4.579c3.471,0 6.884,0 10.354,0c0,-1.779 0,-2.858 0,-4.579l-2.595,0Z" style="fill:#fff;fill-rule:nonzero;"/><path d="M2358.56,386.849l1.867,0l0,-20.446c-1.78,0 -3.559,0 -5.338,0l0,10.005l-10.325,-10.092l-1.896,0l0,20.504c1.779,0 3.588,0 5.396,0l0,-10.033l10.296,10.062Z" style="fill:#fff;fill-rule:nonzero;"/><path d="M2365.82,376.612c0.03,6.971 5.28,10.441 10.471,10.441c3.763,0 7.642,-1.633 9.1,-5.891c0.7,-1.984 0.7,-3.938 0.584,-5.979l-9.655,0l0,4.52l4.346,0c-0.933,1.955 -2.275,2.509 -4.375,2.509c-3.091,0 -5.075,-2.217 -5.075,-5.6c0,-3.121 1.779,-5.688 5.075,-5.688c2.071,0 3.413,0.7 4.259,2.45l5.133,0c-0.992,-5.075 -5.279,-7.204 -9.392,-7.233c-5.191,0 -10.441,3.5 -10.471,10.471Z" style="fill:#fff;fill-rule:nonzero;"/></g><g><path d="M1088.78,725.49c0.029,6.942 5.279,10.442 10.471,10.413c4.346,0 8.925,-2.275 9.683,-8.05c-1.779,0 -3.383,0 -5.133,0c-0.554,2.187 -2.334,3.295 -4.55,3.295c-3.092,-0.029 -5.075,-2.654 -5.075,-5.658c0,-3.383 2.012,-5.687 5.075,-5.687c2.187,0 3.733,0.933 4.462,3.004c1.779,0 3.354,0 5.134,0c-0.788,-5.454 -5.367,-7.759 -9.596,-7.759c-5.192,0 -10.442,3.5 -10.471,10.442Z" style="fill:#fff;fill-rule:nonzero;"/><path d="M1127.37,735.698l5.105,0l0,-0.758l-9.217,-19.921l-2.246,0l-9.187,19.921l0,0.758l5.104,0l1.196,-2.566l8.05,0l1.195,2.566Zm-2.916,-7.058l-4.609,0l2.275,-5.367l2.334,5.367Z" style="fill:#fff;fill-rule:nonzero;"/><path d="M1146.5,724.09l-7.992,-8.867l-1.925,0l0,20.475c1.779,0 3.558,0 5.338,0l0,-9.1l4.316,4.55l0.584,0l4.345,-4.55l0,9.1c1.78,0 3.559,0 5.338,0l0,-20.475l-1.867,0l-8.137,8.867Z" style="fill:#fff;fill-rule:nonzero;"/><path d="M1168.38,735.698l0,-5.22l3.762,0c9.771,0 9.771,-15.167 0,-15.196c-3.004,0 -6.037,0 -8.983,0c0,6.825 0,13.621 0,20.416c1.721,0 3.471,0 5.221,0Zm3.733,-9.916l-3.733,0c0,-1.663 0,-4.171 0,-5.834c1.196,0 2.508,-0.029 3.733,0c3.033,0.03 2.858,5.834 0,5.834Z" style="fill:#fff;fill-rule:nonzero;"/><path d="M1188.47,729.457c-1.78,0 -3.296,0 -5.046,0c-0.117,8.983 16.508,8.75 16.508,0.175c0,-5.104 -3.967,-5.629 -8.021,-6.067c-1.837,-0.204 -3.354,-0.525 -3.237,-2.071c0.175,-2.421 5.658,-2.654 5.658,0.059c1.779,0 3.121,0 4.958,0c0.117,-8.809 -15.75,-8.809 -15.575,0c0.059,4.433 2.975,5.95 7.409,6.27c2.041,0.117 3.733,0.35 3.733,1.78c0,2.391 -6.387,2.45 -6.387,-0.146Z" style="fill:#fff;fill-rule:nonzero;"/><path d="M1211.28,731.119l0,-11.287l2.392,0c0,-1.75 0,-2.829 0,-4.55c-3.325,0 -6.621,0 -9.946,0c0,1.721 0,2.8 0,4.55l2.391,0l0,11.287l-2.595,0c0,1.721 0,2.8 0,4.579c3.47,0 6.883,0 10.354,0c0,-1.779 0,-2.858 0,-4.579l-2.596,0Z" style="fill:#fff;fill-rule:nonzero;"/><path d="M1222.19,719.948l0,15.75c1.721,0 3.442,0 5.163,0l0,-15.75l4.987,0c0,-1.575 0,-3.12 0,-4.666l-15.166,0c0,1.546 0,3.091 0,4.666l5.016,0Z" style="fill:#fff;fill-rule:nonzero;"/><path d="M1249.78,715.282c-4.783,0 -8.021,0 -12.746,0c0,6.766 0,13.591 0,20.416c4.725,0 8.225,0 13.008,0c0,-1.545 0,-3.12 0,-4.637c-3.062,0 -4.812,0 -7.816,0c0,-1.225 0,-2.392 0,-3.588l6.941,0c0,-1.545 0,-3.091 0,-4.637l-6.941,0l0,-2.888c3.004,0 4.521,0 7.554,0c0,-1.575 0,-3.15 0,-4.666Z" style="fill:#fff;fill-rule:nonzero;"/></g><g><path d="M2036.13,532.009c0.029,6.942 5.279,10.442 10.471,10.413c4.346,0 8.925,-2.275 9.683,-8.05c-1.779,0 -3.383,0 -5.133,0c-0.554,2.187 -2.333,3.295 -4.55,3.295c-3.092,-0.029 -5.075,-2.654 -5.075,-5.658c0,-3.383 2.012,-5.687 5.075,-5.687c2.187,0 3.733,0.933 4.462,3.004c1.78,0 3.355,0 5.134,0c-0.788,-5.454 -5.367,-7.759 -9.596,-7.759c-5.192,0 -10.442,3.5 -10.471,10.442Z" style="fill:#fff;fill-rule:nonzero;"/><path d="M2074.72,542.217l5.104,0l0,-0.758l-9.217,-19.921l-2.246,0l-9.187,19.921l0,0.758l5.104,0l1.196,-2.566l8.05,0l1.196,2.566Zm-2.917,-7.058l-4.608,0l2.275,-5.367l2.333,5.367Z" style="fill:#fff;fill-rule:nonzero;"/><path d="M2097.21,534.984c5.163,-3.5 3.704,-13.154 -4.317,-13.183c-2.975,0 -6.008,0 -8.954,0c0,6.825 0,13.621 0,20.416c1.692,0 3.471,0 5.221,0l0,-6.008l2.713,0l3.5,6.008l5.833,0l0,-0.758l-3.996,-6.475Zm-4.317,-3.471l-3.733,0c0,-1.633 0,-3.383 0,-5.046c1.225,0 2.508,-0.029 3.733,0c2.975,0.03 2.83,5.046 0,5.046Z" style="fill:#fff;fill-rule:nonzero;"/><path d="M2119.7,542.217l5.104,0l0,-0.758l-9.217,-19.921l-2.246,0l-9.187,19.921l0,0.758l5.104,0l1.196,-2.566l8.05,0l1.196,2.566Zm-2.917,-7.058l-4.608,0l2.275,-5.367l2.333,5.367Z" style="fill:#fff;fill-rule:nonzero;"/><path d="M2130.17,521.801l-5.016,0l0,0.787l8.75,19.863l2.216,0l8.663,-19.863l0,-0.787l-5.017,0l-4.666,11.579l-0.146,0l-4.784,-11.579Z" style="fill:#fff;fill-rule:nonzero;"/><path d="M2160.68,542.217l5.104,0l0,-0.758l-9.217,-19.921l-2.246,0l-9.187,19.921l0,0.758l5.104,0l1.196,-2.566l8.05,0l1.196,2.566Zm-2.917,-7.058l-4.608,0l2.275,-5.367l2.333,5.367Z" style="fill:#fff;fill-rule:nonzero;"/><path d="M2185.61,542.247l1.867,0l0,-20.446c-1.779,0 -3.558,0 -5.338,0l0,10.004l-10.325,-10.092l-1.895,0l0,20.504c1.779,0 3.587,0 5.395,0l0,-10.033l10.296,10.063Z" style="fill:#fff;fill-rule:nonzero;"/><path d="M2067.1,565.342c0.03,6.942 5.28,10.442 10.471,10.413c4.346,0 8.925,-2.275 9.684,-8.05c-1.78,0 -3.384,0 -5.134,0c-0.554,2.187 -2.333,3.296 -4.55,3.296c-3.091,-0.029 -5.075,-2.654 -5.075,-5.659c0,-3.383 2.013,-5.687 5.075,-5.687c2.188,0 3.734,0.933 4.463,3.004c1.779,0 3.354,0 5.133,0c-0.787,-5.454 -5.367,-7.758 -9.596,-7.758c-5.191,0 -10.441,3.5 -10.471,10.441Z" style="fill:#fff;fill-rule:nonzero;"/><path d="M2105.68,575.551l5.104,0l0,-0.759l-9.217,-19.92l-2.245,0l-9.188,19.92l0,0.759l5.104,0l1.196,-2.567l8.05,0l1.196,2.567Zm-2.917,-7.059l-4.608,0l2.275,-5.366l2.333,5.366Z" style="fill:#fff;fill-rule:nonzero;"/><path d="M2124.82,563.942l-7.991,-8.866l-1.925,0l0,20.475c1.779,0 3.558,0 5.337,0l0,-9.1l4.317,4.55l0.583,0l4.346,-4.55l0,9.1c1.779,0 3.558,0 5.337,0l0,-20.475l-1.866,0l-8.138,8.866Z" style="fill:#fff;fill-rule:nonzero;"/><path d="M2146.69,575.551l0,-5.221l3.763,0c9.771,0 9.771,-15.167 0,-15.196c-3.004,0 -6.038,0 -8.984,0c0,6.825 0,13.621 0,20.417c1.721,0 3.471,0 5.221,0Zm3.734,-9.917l-3.734,0c0,-1.662 0,-4.171 0,-5.833c1.196,0 2.509,-0.029 3.734,0c3.033,0.029 2.858,5.833 0,5.833Z" style="fill:#fff;fill-rule:nonzero;"/></g><g><path d="M1700.66,815.278c0,-1.809 0,-2.917 0,-4.667l-6.563,0l0,-4.463l7.408,0c0,-1.75 0,-2.945 0,-4.666c-4.17,0 -8.545,0 -12.716,0l0,20.416c1.779,0 3.558,0 5.308,0l0,-6.62l6.563,0Z" style="fill:#fff;fill-rule:nonzero;"/><path d="M1719.03,821.898l5.104,0l0,-0.758l-9.217,-19.921l-2.246,0l-9.187,19.921l0,0.758l5.104,0l1.196,-2.566l8.05,0l1.196,2.566Zm-2.917,-7.058l-4.608,0l2.275,-5.367l2.333,5.367Z" style="fill:#fff;fill-rule:nonzero;"/><path d="M1738.17,810.29l-7.992,-8.867l-1.925,0l0,20.475c1.779,0 3.559,0 5.338,0l0,-9.1l4.316,4.55l0.584,0l4.346,-4.55l0,9.1c1.779,0 3.558,0 5.337,0l0,-20.475l-1.867,0l-8.137,8.867Z" style="fill:#fff;fill-rule:nonzero;"/><path d="M1760.89,817.319l0,-11.287l2.391,0c0,-1.75 0,-2.829 0,-4.55c-3.325,0 -6.62,0 -9.945,0c0,1.721 0,2.8 0,4.55l2.391,0l0,11.287l-2.596,0c0,1.721 0,2.8 0,4.579c3.471,0 6.884,0 10.355,0c0,-1.779 0,-2.858 0,-4.579l-2.596,0Z" style="fill:#fff;fill-rule:nonzero;"/><path d="M1773.57,801.482c-1.779,0 -3.5,0 -5.25,0l0,20.416c4.142,0 8.459,0 12.659,0c0,-1.75 0,-2.945 0,-4.695l-7.409,0c0,-8.692 0,-5.163 0,-15.721Z" style="fill:#fff;fill-rule:nonzero;"/><path d="M1794.11,813.323l6.883,-11.054l0,-0.787l-5.658,0l-3.705,6.796l-0.204,0l-3.704,-6.796l-5.629,0l0,0.787l6.854,11.054l0,8.575l5.163,0l0,-8.575Z" style="fill:#fff;fill-rule:nonzero;"/><path d="M1698.38,845.023c0.029,6.942 5.279,10.442 10.47,10.413c4.346,0 8.925,-2.275 9.684,-8.05c-1.779,0 -3.384,0 -5.134,0c-0.554,2.187 -2.333,3.296 -4.55,3.296c-3.091,-0.029 -5.075,-2.654 -5.075,-5.659c0,-3.383 2.013,-5.687 5.075,-5.687c2.188,0 3.734,0.933 4.463,3.004c1.779,0 3.354,0 5.133,0c-0.787,-5.454 -5.366,-7.758 -9.596,-7.758c-5.191,0 -10.441,3.5 -10.47,10.441Z" style="fill:#fff;fill-rule:nonzero;"/><path d="M1736.97,855.232l5.104,0l0,-0.759l-9.216,-19.92l-2.246,0l-9.188,19.92l0,0.759l5.104,0l1.196,-2.567l8.05,0l1.196,2.567Zm-2.917,-7.059l-4.608,0l2.275,-5.366l2.333,5.366Z" style="fill:#fff;fill-rule:nonzero;"/><path d="M1756.1,843.623l-7.991,-8.866l-1.925,0l0,20.475c1.779,0 3.558,0 5.337,0l0,-9.1l4.317,4.55l0.583,0l4.346,-4.55l0,9.1c1.779,0 3.558,0 5.338,0l0,-20.475l-1.867,0l-8.138,8.866Z" style="fill:#fff;fill-rule:nonzero;"/><path d="M1777.98,855.232l0,-5.221l3.763,0c9.771,0 9.771,-15.167 0,-15.196c-3.004,0 -6.038,0 -8.983,0c0,6.825 0,13.621 0,20.417c1.72,0 3.47,0 5.22,0Zm3.734,-9.917l-3.734,0c0,-1.662 0,-4.171 0,-5.833c1.196,0 2.509,-0.029 3.734,0c3.033,0.029 2.858,5.833 0,5.833Z" style="fill:#fff;fill-rule:nonzero;"/></g><path d="M1879.38,468.578c11.342,-10.47 20.124,-24.055 25.045,-39.772c2.524,8.064 6.065,15.567 10.448,22.375c6.196,-5.068 11.798,-11.067 16.602,-17.925c-0.003,16.526 4.301,32.263 11.968,45.859c13.099,7.96 28.261,12.431 44.184,12.431c-6.61,4.984 -12.39,10.797 -17.275,17.227c6.559,4.55 13.787,8.226 21.556,10.848c-15.144,5.104 -28.235,14.216 -38.324,25.986c-3.247,15.389 -2.658,31.736 2.262,47.454c-6.609,-4.984 -13.723,-8.894 -21.124,-11.728c-2.142,7.88 -3.278,16.151 -3.279,24.63c-9.357,-13.372 -21.752,-23.478 -35.655,-29.8c-15.105,1.551 -29.903,7.184 -42.785,16.898c2.524,-8.064 3.909,-16.294 4.219,-24.476c-7.883,0.321 -15.813,1.756 -23.583,4.374c9.362,-13.368 14.792,-28.726 16.289,-44.402c-6.089,-14.431 -15.823,-27.297 -28.705,-37.011c8.169,0 16.139,-1.177 23.731,-3.399c-2.729,-7.682 -6.495,-15.066 -11.295,-21.927c15.142,5.11 30.893,5.724 45.721,2.358Z" style="fill:#fff;"/><path d="M683.559,722.646c10.755,9.203 24.072,15.739 38.915,18.53c-7.073,3.166 -13.525,7.198 -19.253,11.922c5.282,5.097 11.347,9.554 18.111,13.191c-15.051,1.775 -28.92,7.388 -40.478,15.833c-5.84,12.785 -8.281,27.075 -6.568,41.576c-5.25,-5.483 -11.166,-10.122 -17.547,-13.879c-3.438,6.463 -6.009,13.441 -7.561,20.798c-6.277,-13.243 -15.984,-24.184 -27.788,-32.107c-14.364,-1.301 -29.189,0.993 -42.973,7.165c3.828,-6.555 6.623,-13.454 8.408,-20.499c-7.407,-1.104 -15.062,-1.248 -22.784,-0.338c11.172,-9.959 19.042,-22.335 23.304,-35.676c-3.037,-13.59 -9.759,-26.461 -19.991,-37.148c7.615,1.432 15.259,1.807 22.743,1.21c-1.139,-7.145 -3.299,-14.212 -6.52,-21.007c13.182,7.088 27.752,10.381 42.19,10.058c12.488,-7.097 23.158,-17.347 30.619,-30.123c0.879,7.44 2.808,14.571 5.648,21.247c6.703,-3.312 13.022,-7.536 18.754,-12.646c-3.025,14.34 -1.89,28.751 2.771,41.893Z" style="fill:#fff;"/><g><path d="M1142.83,516.291l16.81,0l0,-16.811l13.623,0l0,16.811l16.811,0l0,13.623l-16.811,0l0,16.811l-13.623,0l0,-16.811l-16.81,0l0,-13.623Z" style="fill:#fff;"/><path d="M1166.7,485.131c17.443,0.152 33.899,13.569 37.14,31.065c2.263,12.216 -1.93,25.471 -10.829,34.158c-10.483,10.231 -27.1,13.663 -40.926,8.006c-15.053,-6.16 -25.103,-22.819 -23.456,-39.087c1.836,-18.134 18.182,-33.713 37.089,-34.136c0.328,-0.005 0.655,-0.007 0.982,-0.006Zm-0.464,4.167c-15.461,0.147 -29.963,11.982 -32.99,27.242c-4.184,21.098 15.377,44.353 39.406,39.9c13.773,-2.552 25.267,-14.482 27.299,-28.345c2.752,-18.782 -12.498,-38.34 -32.841,-38.792c-0.291,-0.004 -0.583,-0.006 -0.874,-0.005Z" style="fill:#fff;fill-rule:nonzero;"/></g><g><path d="M1999.69,783.703c17.442,0.152 33.899,13.569 37.139,31.064c2.264,12.217 -1.929,25.472 -10.829,34.159c-10.482,10.231 -27.099,13.663 -40.925,8.005c-15.053,-6.159 -25.103,-22.818 -23.456,-39.086c1.835,-18.135 18.182,-33.714 37.089,-34.136c0.327,-0.005 0.654,-0.007 0.982,-0.006Zm-0.464,4.166c-15.462,0.148 -29.964,11.983 -32.99,27.242c-4.184,21.099 15.377,44.354 39.406,39.901c13.773,-2.552 25.267,-14.482 27.299,-28.346c2.752,-18.782 -12.498,-38.339 -32.841,-38.791c-0.292,-0.005 -0.583,-0.006 -0.874,-0.006Z" style="fill:#fff;fill-rule:nonzero;"/><path d="M2005.19,798.052c3.164,0 4.745,2.158 4.745,4.625c0,3.081 -2.747,5.931 -6.327,5.931c-2.997,0 -4.745,-1.772 -4.662,-4.699c0,-2.467 2.081,-5.857 6.244,-5.857Zm-9.741,47.244c-2.498,0 -4.33,-1.541 -2.581,-8.322l2.868,-12.027c0.499,-1.926 0.581,-2.696 0,-2.696c-0.751,0 -3.993,1.33 -5.911,2.641l-1.247,-2.081c6.077,-5.162 13.069,-8.189 16.065,-8.189c2.497,0 2.914,3.005 1.665,7.629l-3.283,12.642c-0.583,2.234 -0.332,3.004 0.249,3.004c0.75,0 3.207,-0.927 5.621,-2.854l1.415,1.927c-5.911,6.011 -12.363,8.326 -14.861,8.326Z" style="fill:#fff;fill-rule:nonzero;"/></g><g><path d="M1409.03,479.965c-4.56,0 -8.72,2.43 -10.979,6.3c-7.073,0.039 -12.814,5.803 -12.814,12.884c0,1.186 0.961,2.148 2.147,2.148l21.475,0c1.186,0 2.147,-0.962 2.147,-2.148c0,-5.488 -3.449,-10.184 -8.292,-12.038c1.571,-1.782 3.856,-2.851 6.316,-2.851c4.642,0 8.419,3.777 8.419,8.421l0,32.381c0,1.186 0.961,2.147 2.147,2.147c1.186,0 2.148,-0.961 2.148,-2.147l0,-32.381c-0.001,-7.012 -5.704,-12.716 -12.714,-12.716Zm-19.499,37.08c-1.186,0 -2.147,0.961 -2.147,2.147l0,2.863c0,1.186 0.961,2.148 2.147,2.148c1.186,0 2.148,-0.962 2.148,-2.148l0,-2.863c0,-1.186 -0.962,-2.147 -2.148,-2.147Zm8.59,0c-1.186,0 -2.147,0.961 -2.147,2.147l0,2.863c0,1.186 0.961,2.148 2.147,2.148c1.186,0 2.148,-0.962 2.148,-2.148l0,-2.863c0,-1.186 -0.962,-2.147 -2.148,-2.147Zm8.59,0c-1.186,0 -2.147,0.961 -2.147,2.147l0,2.863c0,1.186 0.961,2.148 2.147,2.148c1.186,0 2.148,-0.962 2.148,-2.148l0,-2.863c0,-1.186 -0.962,-2.147 -2.148,-2.147Zm-17.18,-11.454c-1.186,0 -2.147,0.962 -2.147,2.148l0,2.863c0,1.186 0.961,2.148 2.147,2.148c1.186,0 2.148,-0.962 2.148,-2.148l0,-2.863c0,-1.186 -0.962,-2.148 -2.148,-2.148Zm8.59,0c-1.186,0 -2.147,0.962 -2.147,2.148l0,2.863c0,1.186 0.961,2.148 2.147,2.148c1.186,0 2.148,-0.962 2.148,-2.148l0,-2.863c0,-1.186 -0.962,-2.148 -2.148,-2.148Zm8.59,0c-1.186,0 -2.147,0.962 -2.147,2.148l0,2.863c0,1.186 0.961,2.148 2.147,2.148c1.186,0 2.148,-0.962 2.148,-2.148l0,-2.863c0,-1.186 -0.962,-2.148 -2.148,-2.148Z" style="fill:#fff;fill-rule:nonzero;"/><path d="M1403.75,465.616c17.443,0.152 33.899,13.569 37.14,31.064c2.263,12.217 -1.929,25.472 -10.829,34.159c-10.482,10.231 -27.1,13.663 -40.925,8.005c-15.054,-6.159 -25.103,-22.818 -23.457,-39.086c1.836,-18.135 18.183,-33.714 37.09,-34.136c0.327,-0.005 0.654,-0.007 0.981,-0.006Zm-0.464,4.166c-15.461,0.148 -29.963,11.983 -32.989,27.242c-4.185,21.099 15.377,44.354 39.406,39.901c13.772,-2.552 25.267,-14.482 27.298,-28.346c2.753,-18.782 -12.498,-38.339 -32.84,-38.791c-0.292,-0.005 -0.583,-0.006 -0.875,-0.006Z" style="fill:#fff;fill-rule:nonzero;"/></g><g><path d="M147.414,358.681c-4.56,0 -8.72,2.43 -10.979,6.3c-7.073,0.038 -12.815,5.803 -12.815,12.884c0,1.186 0.962,2.147 2.148,2.147l21.475,0c1.186,0 2.147,-0.961 2.147,-2.147c0,-5.488 -3.449,-10.185 -8.293,-12.038c1.572,-1.782 3.856,-2.851 6.317,-2.851c4.642,0 8.418,3.777 8.418,8.42l0,32.381c0,1.186 0.962,2.148 2.148,2.148c1.186,0 2.147,-0.962 2.147,-2.148l0,-32.381c0,-7.011 -5.703,-12.715 -12.713,-12.715Zm-19.499,37.079c-1.186,0 -2.147,0.962 -2.147,2.148l0,2.863c0,1.186 0.961,2.147 2.147,2.147c1.186,0 2.148,-0.961 2.148,-2.147l0,-2.863c0,-1.186 -0.962,-2.148 -2.148,-2.148Zm8.59,0c-1.186,0 -2.147,0.962 -2.147,2.148l0,2.863c0,1.186 0.961,2.147 2.147,2.147c1.186,0 2.148,-0.961 2.148,-2.147l0,-2.863c0,-1.186 -0.962,-2.148 -2.148,-2.148Zm8.59,0c-1.186,0 -2.148,0.962 -2.148,2.148l0,2.863c0,1.186 0.962,2.147 2.148,2.147c1.186,0 2.147,-0.961 2.147,-2.147l0,-2.863c0,-1.186 -0.961,-2.148 -2.147,-2.148Zm-17.18,-11.453c-1.186,0 -2.147,0.962 -2.147,2.148l0,2.863c0,1.186 0.961,2.147 2.147,2.147c1.186,0 2.148,-0.961 2.148,-2.147l0,-2.863c0,-1.186 -0.962,-2.148 -2.148,-2.148Zm8.59,0c-1.186,0 -2.147,0.962 -2.147,2.148l0,2.863c0,1.186 0.961,2.147 2.147,2.147c1.186,0 2.148,-0.961 2.148,-2.147l0,-2.863c0,-1.186 -0.962,-2.148 -2.148,-2.148Zm8.59,0c-1.186,0 -2.148,0.962 -2.148,2.148l0,2.863c0,1.186 0.962,2.147 2.148,2.147c1.186,0 2.147,-0.961 2.147,-2.147l0,-2.863c0,-1.186 -0.961,-2.148 -2.147,-2.148Z" style="fill:#fff;fill-rule:nonzero;"/><path d="M142.125,344.332c17.443,0.152 33.899,13.568 37.14,31.064c2.263,12.216 -1.929,25.472 -10.829,34.158c-10.482,10.232 -27.1,13.663 -40.926,8.006c-15.053,-6.16 -25.102,-22.818 -23.456,-39.087c1.836,-18.134 18.183,-33.713 37.09,-34.135c0.327,-0.006 0.654,-0.008 0.981,-0.006Zm-0.464,4.166c-15.461,0.147 -29.963,11.983 -32.989,27.242c-4.185,21.099 15.376,44.353 39.406,39.9c13.772,-2.552 25.267,-14.482 27.298,-28.345c2.752,-18.782 -12.498,-38.34 -32.841,-38.791c-0.291,-0.005 -0.582,-0.007 -0.874,-0.006Z" style="fill:#fff;fill-rule:nonzero;"/></g><g><path d="M1646.79,692.922c17.443,0.153 33.899,13.569 37.14,31.065c2.263,12.216 -1.929,25.472 -10.829,34.158c-10.482,10.232 -27.1,13.663 -40.926,8.006c-15.053,-6.16 -25.102,-22.818 -23.456,-39.087c1.836,-18.134 18.183,-33.713 37.09,-34.135c0.327,-0.006 0.654,-0.008 0.981,-0.007Zm-0.464,4.167c-15.461,0.147 -29.963,11.982 -32.989,27.242c-4.185,21.099 15.377,44.353 39.406,39.9c13.772,-2.552 25.267,-14.482 27.298,-28.345c2.752,-18.782 -12.498,-38.34 -32.84,-38.792c-0.292,-0.004 -0.583,-0.006 -0.875,-0.005Z" style="fill:#fff;fill-rule:nonzero;"/><g><path d="M1664.8,712.08c-1.032,0.047 -1.826,0.908 -1.826,1.909l0,4.253l-11.198,0l-10.33,17.307c-2.386,3.997 -6.83,6.481 -11.598,6.481l-2.356,0c-0.679,0 -1.23,0.533 -1.23,1.19l0,2.079c0,0.658 0.551,1.191 1.23,1.191l2.957,0c5.914,0 11.427,-3.103 14.387,-8.062l9.215,-15.427c0.114,-0.192 0.326,-0.299 0.554,-0.299l8.369,0l0,3.936l-2.814,-1.987l0,-0.71l-3.838,0l0,22.839c0,1.001 0.794,1.862 1.826,1.909c1.102,0.05 2.012,-0.8 2.012,-1.856l0,-1.174l2.814,1.986l0,1.423c0,1.001 0.794,1.862 1.826,1.909c1.102,0.05 2.011,-0.8 2.011,-1.856l0,-35.185c0,-1.056 -0.909,-1.906 -2.011,-1.856Zm-1.826,30.943l-2.814,-1.987l0,-3.57l2.814,1.987l0,3.57Zm0,-8.193l-2.814,-1.986l0,-3.57l2.814,1.986l0,3.57Z" style="fill:#fff;fill-rule:nonzero;"/><path d="M1658.24,710.808c-1.06,0 -1.919,0.832 -1.919,1.859l0,4.336l3.838,0l0,-4.336c0,-1.027 -0.859,-1.859 -1.919,-1.859Z" style="fill:#fff;fill-rule:nonzero;"/></g></g><g><path d="M1575.8,761.711c17.443,0.152 33.899,13.569 37.14,31.064c2.263,12.217 -1.929,25.472 -10.829,34.159c-10.482,10.231 -27.099,13.662 -40.925,8.005c-15.054,-6.16 -25.103,-22.818 -23.456,-39.086c1.835,-18.135 18.182,-33.714 37.089,-34.136c0.327,-0.005 0.654,-0.008 0.981,-0.006Zm-0.464,4.166c-15.461,0.147 -29.963,11.983 -32.989,27.242c-4.185,21.099 15.377,44.354 39.406,39.901c13.772,-2.553 25.267,-14.483 27.298,-28.346c2.753,-18.782 -12.498,-38.34 -32.84,-38.791c-0.292,-0.005 -0.583,-0.007 -0.875,-0.006Z" style="fill:#fff;fill-rule:nonzero;"/><path d="M1596.09,812.187c0.425,-1.351 -0.326,-2.791 -1.677,-3.215c-6.03,-1.895 -8.591,-12.694 -9.191,-16.676c-0.088,-0.564 -0.379,-1.111 -0.379,-1.111c-1.108,-2.107 -5.299,-3.09 -5.771,-3.147c-0.847,-0.102 -0.955,-0.75 -0.991,-0.97c1.48,-1.03 2.48,-3.516 2.48,-5.76c0,-3.316 -0.35,-6.004 -4.867,-6.004c-0.061,0 -0.293,0 -0.353,0c-4.517,0 -4.867,2.688 -4.867,6.004c0,2.244 0.999,4.73 2.48,5.76c-0.036,0.22 -0.177,0.879 -0.991,0.97c-0.508,0.057 -5.32,1.193 -5.967,3.644c0,0 -0.079,0.351 -0.127,0.624c-0.007,0.037 -0.505,3.74 -1.997,7.763c-1.273,3.431 -3.552,7.761 -7.187,8.903c-1.351,0.424 -2.101,1.864 -1.677,3.215c0.341,1.086 1.338,1.783 2.418,1.795c-2.162,1.243 -2.478,2.975 -2.478,3.873c0,0.357 0.185,1.518 1.028,2.587c0.757,0.961 2.266,2.107 5.155,2.107c0.433,0 0.891,-0.026 1.362,-0.077c1.922,-0.207 3.859,-0.517 5.733,-0.817c0.68,-0.109 1.359,-0.217 2.04,-0.322c0.906,-0.139 2.539,-0.231 4.854,-0.273l0.794,0c2.315,0.042 3.949,0.134 4.855,0.273c0.681,0.105 1.36,0.213 2.04,0.322c1.873,0.3 3.811,0.61 5.732,0.817c0.471,0.051 0.93,0.077 1.363,0.077c2.889,0 4.398,-1.146 5.155,-2.107c0.843,-1.069 1.028,-2.23 1.028,-2.587c0,-0.898 -0.317,-2.631 -2.478,-3.874c0.012,0.001 0.024,0.002 0.036,0.002c1.09,0 2.101,-0.701 2.445,-1.796Zm-29.957,-0.325c-1.301,0.405 -1.599,0.447 -2.712,0.605c-0.362,0.051 -0.807,0.115 -1.397,0.206c-0.577,0.061 -1.106,0.144 -1.594,0.243c3.344,-1.848 6.041,-5.37 8.04,-10.512c0.111,1.002 0.18,2.105 0.18,3.318c0,3.958 -2.005,5.98 -2.517,6.14Zm22.877,0.811c-0.589,-0.091 -1.034,-0.161 -1.396,-0.206c-3.504,-0.431 -5.23,-2.786 -5.23,-6.745c0,-1.265 0.075,-2.411 0.195,-3.447c2.011,5.231 4.737,8.804 8.126,10.661c-0.515,-0.108 -1.078,-0.198 -1.695,-0.263Z" style="fill:#fff;fill-rule:nonzero;"/></g><g><path d="M1275.16,495.588c17.442,0.152 33.899,13.568 37.14,31.064c2.263,12.216 -1.93,25.472 -10.829,34.158c-10.483,10.232 -27.1,13.663 -40.926,8.006c-15.053,-6.16 -25.103,-22.818 -23.456,-39.087c1.836,-18.134 18.182,-33.713 37.089,-34.135c0.327,-0.006 0.654,-0.008 0.982,-0.006Zm-0.464,4.166c-15.462,0.147 -29.963,11.982 -32.99,27.242c-4.184,21.099 15.377,44.353 39.406,39.9c13.773,-2.552 25.267,-14.482 27.299,-28.345c2.752,-18.782 -12.498,-38.34 -32.841,-38.791c-0.291,-0.005 -0.583,-0.007 -0.874,-0.006Z" style="fill:#fff;fill-rule:nonzero;"/><path d="M1286.62,509.937c0.353,0 0.659,0.129 0.917,0.387c0.258,0.259 0.388,0.565 0.388,0.918l0,43.332c0,0.707 -0.259,1.319 -0.775,1.835c-0.509,0.508 -1.11,0.764 -1.802,0.772c-0.693,-0.008 -1.294,-0.264 -1.802,-0.772c-0.517,-0.516 -0.775,-1.128 -0.775,-1.835l0,-21.146l-2.962,0c-0.177,0 -0.33,-0.065 -0.458,-0.194c-0.129,-0.129 -0.194,-0.282 -0.194,-0.458l0,-16.314c0,-1.794 0.639,-3.33 1.917,-4.608c1.277,-1.278 2.814,-1.917 4.608,-1.917l0.938,0Zm-20.514,16.976l0,27.125c0,0.707 0.258,1.319 0.775,1.836c0.508,0.508 1.109,0.763 1.802,0.771c0.692,-0.008 1.294,-0.263 1.802,-0.771c0.517,-0.517 0.775,-1.129 0.775,-1.836l0,-27.125c0.775,-0.271 3.68,-2.861 3.68,-3.691l0,-10.91c0,-0.352 -0.129,-0.659 -0.387,-0.917c-0.259,-0.258 -0.565,-0.388 -0.918,-0.388c-0.354,0 -0.659,0.13 -0.917,0.388c-0.259,0.259 -0.388,0.565 -0.388,0.917l0,8.483c0,0.354 -0.13,0.66 -0.388,0.918c-0.258,0.258 -0.564,0.387 -0.917,0.387c-0.354,0 -0.659,-0.129 -0.917,-0.387c-0.258,-0.258 -0.388,-0.565 -0.388,-0.918l0,-8.483c0,-0.352 -0.13,-0.659 -0.388,-0.917c-0.258,-0.258 -0.564,-0.388 -0.917,-0.388c-0.354,0 -0.659,0.13 -0.917,0.388c-0.259,0.259 -0.388,0.565 -0.388,0.917l0,8.483c0,0.354 -0.129,0.66 -0.388,0.918c-0.258,0.258 -0.564,0.387 -0.917,0.387c-0.354,0 -0.659,-0.129 -0.917,-0.387c-0.259,-0.258 -0.388,-0.565 -0.388,-0.918l0,-8.483c0,-0.352 -0.129,-0.659 -0.388,-0.917c-0.258,-0.258 -0.564,-0.388 -0.917,-0.388c-0.354,0 -0.659,0.13 -0.917,0.388c-0.258,0.259 -0.388,0.565 -0.388,0.917l0,10.91c0,0.83 3.441,3.419 4.216,3.691Z" style="fill:#fff;fill-rule:nonzero;"/></g><g><path d="M350.802,233.086c17.443,0.152 33.899,13.569 37.14,31.064c2.263,12.217 -1.929,25.472 -10.829,34.159c-10.482,10.231 -27.1,13.663 -40.925,8.005c-15.054,-6.159 -25.103,-22.818 -23.457,-39.086c1.836,-18.135 18.183,-33.714 37.09,-34.136c0.327,-0.005 0.654,-0.007 0.981,-0.006Zm-0.464,4.166c-15.461,0.147 -29.963,11.983 -32.989,27.242c-4.185,21.099 15.377,44.354 39.406,39.901c13.772,-2.553 25.267,-14.483 27.298,-28.346c2.753,-18.782 -12.498,-38.34 -32.84,-38.791c-0.292,-0.005 -0.583,-0.007 -0.875,-0.006Z" style="fill:#fff;fill-rule:nonzero;"/><path d="M362.264,247.435c0.353,0 0.659,0.13 0.917,0.388c0.258,0.258 0.388,0.564 0.388,0.917l0,43.332c0,0.707 -0.259,1.319 -0.775,1.835c-0.509,0.508 -1.111,0.764 -1.803,0.772c-0.692,-0.008 -1.293,-0.264 -1.802,-0.772c-0.516,-0.516 -0.774,-1.128 -0.774,-1.835l0,-21.146l-2.962,0c-0.177,0 -0.33,-0.065 -0.459,-0.193c-0.129,-0.129 -0.193,-0.283 -0.193,-0.459l0,-16.314c0,-1.794 0.639,-3.33 1.916,-4.608c1.278,-1.278 2.814,-1.917 4.609,-1.917l0.938,0Zm-20.514,16.976l0,27.126c0,0.707 0.258,1.318 0.775,1.835c0.508,0.508 1.109,0.764 1.801,0.772c0.693,-0.008 1.294,-0.264 1.803,-0.772c0.516,-0.517 0.774,-1.128 0.774,-1.835l0,-27.126c0.775,-0.271 3.681,-2.86 3.681,-3.691l0,-10.909c0,-0.353 -0.13,-0.659 -0.388,-0.918c-0.258,-0.258 -0.565,-0.387 -0.917,-0.387c-0.354,0 -0.66,0.129 -0.918,0.387c-0.258,0.259 -0.387,0.565 -0.387,0.918l0,8.482c0,0.354 -0.13,0.66 -0.388,0.918c-0.258,0.258 -0.564,0.387 -0.917,0.387c-0.354,0 -0.66,-0.129 -0.918,-0.387c-0.258,-0.258 -0.387,-0.564 -0.387,-0.918l0,-8.482c0,-0.353 -0.13,-0.659 -0.388,-0.918c-0.258,-0.258 -0.564,-0.387 -0.917,-0.387c-0.354,0 -0.66,0.129 -0.918,0.387c-0.258,0.259 -0.387,0.565 -0.387,0.918l0,8.482c0,0.354 -0.13,0.66 -0.388,0.918c-0.258,0.258 -0.564,0.387 -0.917,0.387c-0.354,0 -0.66,-0.129 -0.918,-0.387c-0.258,-0.258 -0.387,-0.564 -0.387,-0.918l0,-8.482c0,-0.353 -0.129,-0.659 -0.388,-0.918c-0.258,-0.258 -0.564,-0.387 -0.917,-0.387c-0.354,0 -0.66,0.129 -0.918,0.387c-0.258,0.259 -0.387,0.565 -0.387,0.918l0,10.909c0,0.83 3.441,3.42 4.216,3.691Z" style="fill:#fff;fill-rule:nonzero;"/></g><g><g><path d="M477.222,261.97c17.443,0.152 33.899,13.569 37.14,31.065c2.263,12.216 -1.929,25.471 -10.829,34.158c-10.482,10.231 -27.1,13.663 -40.926,8.006c-15.053,-6.16 -25.103,-22.819 -23.456,-39.087c1.836,-18.134 18.182,-33.713 37.09,-34.135c0.327,-0.006 0.654,-0.008 0.981,-0.007Zm-0.464,4.167c-15.461,0.147 -29.963,11.982 -32.989,27.242c-4.185,21.098 15.376,44.353 39.406,39.9c13.772,-2.552 25.267,-14.482 27.298,-28.345c2.752,-18.782 -12.498,-38.34 -32.841,-38.792c-0.291,-0.004 -0.582,-0.006 -0.874,-0.005Z" style="fill:#fff;fill-rule:nonzero;"/><path d="M460.396,283.109c-3.214,1.583 -4.697,2.357 -4.68,2.432c0.033,0.125 3.606,9.853 3.631,9.878c0.008,0.008 1.207,-0.491 2.673,-1.108c1.466,-0.608 2.673,-1.116 2.69,-1.116c0.009,0 0.017,5.83 0.017,12.952l0,12.951l24.487,0l0.017,-12.943l0.025,-12.943l2.657,1.116c1.466,0.617 2.673,1.108 2.681,1.091c0.026,-0.025 3.599,-9.745 3.632,-9.878c0.017,-0.075 -1.483,-0.858 -4.681,-2.432l-4.706,-2.324l-3.306,0l-3.315,0l0,0.391c0,0.667 -0.225,1.533 -0.575,2.233c-0.75,1.507 -2.324,2.557 -4.264,2.865c-0.659,0.108 -1.733,-0.142 -2.707,-0.617c-1.091,-0.525 -1.908,-1.299 -2.366,-2.24c-0.358,-0.716 -0.583,-1.583 -0.583,-2.241l0,-0.391l-3.306,0l-3.315,0l-4.706,2.324Z" style="fill:#fff;fill-rule:nonzero;"/></g></g><g><path d="M1784.57,688.922c17.443,0.153 33.899,13.569 37.14,31.065c2.263,12.216 -1.929,25.472 -10.829,34.158c-10.482,10.232 -27.099,13.663 -40.925,8.006c-15.054,-6.16 -25.103,-22.818 -23.456,-39.087c1.835,-18.134 18.182,-33.713 37.089,-34.135c0.327,-0.006 0.654,-0.008 0.981,-0.007Zm-0.464,4.167c-15.461,0.147 -29.963,11.982 -32.989,27.242c-4.185,21.099 15.377,44.353 39.406,39.9c13.772,-2.552 25.267,-14.482 27.298,-28.345c2.753,-18.782 -12.498,-38.34 -32.84,-38.792c-0.292,-0.004 -0.583,-0.006 -0.875,-0.005Z" style="fill:#fff;fill-rule:nonzero;"/><path d="M1807.94,746.272c0,0 -0.191,1.432 -1.527,1.432c-1.336,0 -9.926,-8.013 -9.926,-9.067l0,-10.499c0,-1.054 8.399,-9.067 9.926,-9.067c1.527,0 1.527,1.431 1.527,1.431l0,25.77Zm-15.175,-0.716l-29.778,0c-1.265,0 -2.291,-0.726 -2.291,-1.622l0,-21.093c0,-0.896 1.026,-1.623 2.291,-1.623l29.778,0c1.265,0 2.29,0.727 2.29,1.623l0,21.093c0,0.896 -1.025,1.622 -2.29,1.622Zm-23.479,-36.609c3.16,0 5.726,2.566 5.726,5.727c0,3.16 -2.566,5.726 -5.726,5.726c-3.161,0 -5.727,-2.566 -5.727,-5.726c0,-3.161 2.566,-5.727 5.727,-5.727Zm15.748,-2.863c3.951,0 7.158,3.207 7.158,7.158c0,3.951 -3.207,7.158 -7.158,7.158c-3.951,0 -7.158,-3.207 -7.158,-7.158c0,-3.951 3.207,-7.158 7.158,-7.158Z" style="fill:#fff;fill-rule:nonzero;"/></g><g><path d="M206.951,309.292l-4.979,0l0,-0.814c1.622,-1.201 2.675,-3.127 2.675,-5.296c0,-3.212 -2.311,-5.894 -5.358,-6.471c-0.885,-3.27 -3.869,-5.646 -7.394,-5.646c-1.951,0 -3.823,0.754 -5.231,2.067c-0.502,-0.131 -1.022,-0.199 -1.544,-0.199c-2.484,0 -4.651,1.507 -5.595,3.674c-0.128,-0.008 -0.258,-0.012 -0.388,-0.012c-3.632,0 -6.586,2.955 -6.586,6.587c0,2 0.897,3.793 2.308,5.002l0,27.243c0,1.585 1.297,2.882 2.882,2.882l21.349,0c1.585,0 2.882,-1.297 2.882,-2.882l0,-4.228l4.979,0c2.967,0 5.381,-2.414 5.381,-5.381l0,-11.146c0,-2.966 -2.414,-5.38 -5.381,-5.38Zm-8.891,-3.174l-16.866,0l0,5.866c0,1.008 -0.817,1.826 -1.825,1.826c-1.009,0 -1.826,-0.818 -1.826,-1.826l0,-6.339c-0.806,-0.524 -1.341,-1.432 -1.341,-2.463c0,-1.618 1.317,-2.935 2.935,-2.935c0.365,0 0.721,0.066 1.06,0.198c0.542,0.21 1.151,0.15 1.641,-0.163c0.49,-0.312 0.802,-0.838 0.841,-1.418c0.085,-1.278 1.157,-2.28 2.441,-2.28c0.418,0 0.815,0.102 1.178,0.303c0.805,0.444 1.815,0.22 2.357,-0.522c0.765,-1.048 1.946,-1.649 3.24,-1.649c2.141,0 3.9,1.673 4.005,3.808c0.024,0.49 0.245,0.95 0.612,1.276c0.367,0.325 0.849,0.49 1.339,0.455c0.085,-0.006 0.151,-0.008 0.209,-0.008c1.619,0 2.936,1.317 2.936,2.935c0,1.619 -1.317,2.936 -2.936,2.936Zm9.275,19.7c0,0.205 -0.179,0.385 -0.384,0.385l-4.979,0l0,-11.915l4.979,0c0.205,0 0.384,0.18 0.384,0.385l0,11.145Z" style="fill:#fff;fill-rule:nonzero;"/><path d="M192.692,276.716c17.443,0.152 33.899,13.569 37.14,31.064c2.263,12.217 -1.929,25.472 -10.829,34.159c-10.482,10.231 -27.099,13.663 -40.925,8.005c-15.054,-6.159 -25.103,-22.818 -23.456,-39.086c1.835,-18.135 18.182,-33.714 37.089,-34.136c0.327,-0.005 0.654,-0.007 0.981,-0.006Zm-0.464,4.166c-15.461,0.147 -29.963,11.983 -32.989,27.242c-4.185,21.099 15.377,44.354 39.406,39.901c13.772,-2.553 25.267,-14.483 27.298,-28.346c2.753,-18.782 -12.498,-38.34 -32.84,-38.791c-0.292,-0.005 -0.583,-0.007 -0.875,-0.006Z" style="fill:#fff;fill-rule:nonzero;"/></g><g><path d="M2124.81,463.176l-13.902,0l-14.735,14.734l-14.735,-14.734l-13.902,0l0,-30.346l57.274,0l0,30.346Zm-11.597,-13.069c-0.49,1.937 -2.065,2.918 -4.027,2.918c-2.737,-0.026 -4.493,-2.35 -4.493,-5.009c0,-2.995 1.782,-5.035 4.493,-5.035c1.936,0 3.304,0.826 3.95,2.659c1.575,0 2.969,0 4.544,0c-0.697,-4.828 -4.751,-6.867 -8.494,-6.867c-4.596,0 -9.243,3.098 -9.269,9.243c0.026,6.145 4.673,9.243 9.269,9.217c3.847,0 7.9,-2.014 8.571,-7.126l-4.544,0Zm-33.951,-11.128l-4.673,0l0,0.697l6.351,17.557l2.556,0l2.892,-8.701l0.077,0l2.892,8.701l2.659,0l6.274,-17.557l0,-0.697l-4.596,0l-2.297,6.816l-0.801,3.073l-0.077,0l-3.073,-9.605l-1.962,0l-3.021,9.605l-0.077,0l-0.801,-3.073l-2.323,-6.816Z" style="fill:#fff;"/></g><g><path d="M1601.63,427.582l-13.902,0l-14.735,14.735l-14.735,-14.735l-13.902,0l0,-30.345l57.274,0l0,30.345Zm-11.597,-13.068c-0.49,1.936 -2.065,2.917 -4.027,2.917c-2.737,-0.026 -4.493,-2.349 -4.493,-5.009c0,-2.995 1.782,-5.034 4.493,-5.034c1.936,0 3.304,0.826 3.95,2.659c1.575,0 2.969,0 4.544,0c-0.697,-4.828 -4.751,-6.868 -8.494,-6.868c-4.596,0 -9.244,3.098 -9.269,9.243c0.025,6.145 4.673,9.243 9.269,9.217c3.846,0 7.9,-2.013 8.571,-7.125l-4.544,0Zm-33.951,-11.128l-4.674,0l0,0.697l6.352,17.556l2.556,0l2.892,-8.7l0.077,0l2.892,8.7l2.659,0l6.274,-17.556l0,-0.697l-4.596,0l-2.298,6.816l-0.8,3.072l-0.077,0l-3.073,-9.604l-1.962,0l-3.021,9.604l-0.077,0l-0.801,-3.072l-2.323,-6.816Z" style="fill:#fff;"/></g><g><path d="M1675.04,887.881l-13.902,0l-14.735,14.735l-14.735,-14.735l-13.902,0l0,-30.345l57.274,0l0,30.345Zm-11.596,-13.068c-0.491,1.936 -2.066,2.917 -4.028,2.917c-2.737,-0.026 -4.493,-2.349 -4.493,-5.009c0,-2.995 1.782,-5.034 4.493,-5.034c1.936,0 3.305,0.826 3.95,2.659c1.575,0 2.969,0 4.544,0c-0.697,-4.828 -4.75,-6.868 -8.494,-6.868c-4.596,0 -9.243,3.098 -9.269,9.243c0.026,6.145 4.673,9.243 9.269,9.218c3.847,0 7.9,-2.014 8.572,-7.126l-4.544,0Zm-33.952,-11.128l-4.673,0l0,0.697l6.351,17.557l2.556,0l2.892,-8.701l0.077,0l2.892,8.701l2.659,0l6.274,-17.557l0,-0.697l-4.595,0l-2.298,6.816l-0.801,3.072l-0.077,0l-3.072,-9.604l-1.963,0l-3.02,9.604l-0.078,0l-0.8,-3.072l-2.324,-6.816Z" style="fill:#fff;"/></g><g><path d="M1064.95,535.883l-13.902,0l-14.735,14.735l-14.735,-14.735l-13.902,0l0,-30.345l57.274,0l0,30.345Zm-11.597,-13.069c-0.491,1.937 -2.066,2.918 -4.028,2.918c-2.736,-0.026 -4.492,-2.35 -4.492,-5.009c0,-2.995 1.781,-5.035 4.492,-5.035c1.937,0 3.305,0.827 3.951,2.66c1.575,0 2.969,0 4.544,0c-0.697,-4.828 -4.751,-6.868 -8.495,-6.868c-4.595,0 -9.243,3.098 -9.269,9.243c0.026,6.145 4.674,9.243 9.269,9.217c3.847,0 7.901,-2.013 8.572,-7.126l-4.544,0Zm-33.952,-11.127l-4.673,0l0,0.697l6.352,17.556l2.556,0l2.891,-8.701l0.078,0l2.892,8.701l2.659,0l6.274,-17.556l0,-0.697l-4.596,0l-2.298,6.816l-0.8,3.072l-0.078,0l-3.072,-9.604l-1.962,0l-3.021,9.604l-0.077,0l-0.801,-3.072l-2.324,-6.816Z" style="fill:#fff;"/></g><g><path d="M687.835,288.498l-13.902,0l-14.735,14.735l-14.735,-14.735l-13.902,0l0,-30.346l57.274,0l0,30.346Zm-11.596,-13.069c-0.491,1.937 -2.066,2.918 -4.028,2.918c-2.737,-0.026 -4.492,-2.35 -4.492,-5.009c0,-2.995 1.781,-5.035 4.492,-5.035c1.936,0 3.305,0.827 3.95,2.66c1.575,0 2.969,0 4.544,0c-0.697,-4.828 -4.75,-6.868 -8.494,-6.868c-4.596,0 -9.243,3.098 -9.269,9.243c0.026,6.145 4.673,9.243 9.269,9.217c3.847,0 7.9,-2.014 8.572,-7.126l-4.544,0Zm-33.952,-11.128l-4.673,0l0,0.698l6.351,17.556l2.556,0l2.892,-8.701l0.078,0l2.891,8.701l2.66,0l6.273,-17.556l0,-0.698l-4.595,0l-2.298,6.817l-0.8,3.072l-0.078,0l-3.072,-9.605l-1.963,0l-3.02,9.605l-0.078,0l-0.8,-3.072l-2.324,-6.817Z" style="fill:#fff;"/></g><g><path d="M249.715,256.322l-13.902,0l-14.735,14.735l-14.735,-14.735l-13.902,0l0,-30.345l57.274,0l0,30.345Zm-11.597,-13.068c-0.49,1.936 -2.065,2.917 -4.027,2.917c-2.737,-0.026 -4.493,-2.349 -4.493,-5.009c0,-2.995 1.782,-5.034 4.493,-5.034c1.936,0 3.305,0.826 3.95,2.659c1.575,0 2.969,0 4.544,0c-0.697,-4.828 -4.751,-6.868 -8.494,-6.868c-4.596,0 -9.243,3.098 -9.269,9.243c0.026,6.145 4.673,9.243 9.269,9.218c3.847,0 7.9,-2.014 8.572,-7.126l-4.545,0Zm-33.951,-11.128l-4.673,0l0,0.697l6.351,17.557l2.556,0l2.892,-8.701l0.077,0l2.892,8.701l2.659,0l6.274,-17.557l0,-0.697l-4.595,0l-2.298,6.816l-0.801,3.072l-0.077,0l-3.073,-9.604l-1.962,0l-3.021,9.604l-0.077,0l-0.8,-3.072l-2.324,-6.816Z" style="fill:#fff;"/></g><g><path d="M1853.56,506.66c0.033,7.908 6.033,11.894 11.966,11.861c4.967,0 10.2,-2.591 11.067,-9.17c-2.033,0 -3.867,0 -5.867,0c-0.633,2.492 -2.666,3.755 -5.2,3.755c-3.533,-0.034 -5.8,-3.024 -5.8,-6.446c0,-3.854 2.3,-6.479 5.8,-6.479c2.5,0 4.267,1.063 5.1,3.422c2.034,0 3.834,0 5.867,0c-0.9,-6.213 -6.133,-8.837 -10.967,-8.837c-5.933,0 -11.933,3.987 -11.966,11.894Z" style="fill:#0e143c;fill-rule:nonzero;"/><path d="M1900.6,495.031c-2.033,0 -4.067,0 -6.1,0l0,8.439l-7.2,0l0,-8.439c-2.033,0 -4.1,0 -6.1,0l0,23.258c2,0 4.067,0 6.1,0l0,-9.336l7.2,0l0,9.336c2.033,0 4.067,0 6.1,0l0,-23.258Z" style="fill:#0e143c;fill-rule:nonzero;"/><path d="M1913.5,513.072l0,-12.858l2.733,0c0,-1.993 0,-3.222 0,-5.183c-3.8,0 -7.566,0 -11.366,0c0,1.961 0,3.19 0,5.183l2.733,0l0,12.858l-2.967,0c0,1.961 0,3.19 0,5.217c3.967,0 7.867,0 11.834,0c0,-2.027 0,-3.256 0,-5.217l-2.967,0Z" style="fill:#0e143c;fill-rule:nonzero;"/><path d="M1926.33,495.031c-2.033,0 -4,0 -6,0l0,23.258c4.734,0 9.667,0 14.467,0c0,-1.994 0,-3.356 0,-5.35l-8.467,0c0,-9.9 0,-5.88 0,-17.908Z" style="fill:#0e143c;fill-rule:nonzero;"/><path d="M1944.86,495.031c-2.034,0 -4,0 -6,0l0,23.258c4.733,0 9.666,0 14.466,0c0,-1.994 0,-3.356 0,-5.35l-8.466,0c0,-9.9 0,-5.88 0,-17.908Z" style="fill:#0e143c;fill-rule:nonzero;"/><path d="M1893.8,539.918c0,-16.081 -23.933,-16.081 -23.933,0c0,16.114 23.933,16.114 23.933,0Zm-17.8,0c0,-8.373 11.7,-8.373 11.7,0c0,8.439 -11.7,8.439 -11.7,0Z" style="fill:#0e143c;fill-rule:nonzero;"/><path d="M1907.33,546.497c-1.733,0 -3.566,-0.931 -3.566,-2.825l0,-15.416c-1.867,0 -3.834,0 -5.7,0l0,15.516c0,5.117 4.5,8.074 9.266,8.074c4.8,0 9.3,-2.957 9.3,-8.074l0,-15.516c-1.866,0 -3.866,0 -5.766,0l0,15.416c0,1.894 -1.8,2.825 -3.534,2.825Z" style="fill:#0e143c;fill-rule:nonzero;"/><path d="M1925.8,533.572l0,17.941c1.967,0 3.933,0 5.9,0l0,-17.941l5.7,0c0,-1.794 0,-3.555 0,-5.316l-17.333,0c0,1.761 0,3.522 0,5.316l5.733,0Z" style="fill:#0e143c;fill-rule:nonzero;"/></g><g><path d="M595.603,733.95l0,14.625c1.603,0 3.206,0 4.809,0l0,-14.625l4.647,0c0,-1.463 0,-2.898 0,-4.334l-14.13,0c0,1.436 0,2.871 0,4.334l4.674,0Z" style="fill:#0e143c;fill-rule:nonzero;"/><path d="M620.411,741.858c4.809,-3.25 3.451,-12.215 -4.022,-12.242c-2.771,0 -5.597,0 -8.341,0c0,6.338 0,12.648 0,18.959c1.576,0 3.233,0 4.863,0l0,-5.58l2.527,0l3.261,5.58l5.434,0l0,-0.705l-3.722,-6.012Zm-4.022,-3.223l-3.478,0c0,-1.517 0,-3.142 0,-4.685c1.142,0 2.337,-0.027 3.478,0c2.772,0.027 2.636,4.685 0,4.685Z" style="fill:#0e143c;fill-rule:nonzero;"/><path d="M632.72,744.323l0,-10.482l2.228,0c0,-1.625 0,-2.627 0,-4.225c-3.098,0 -6.168,0 -9.266,0c0,1.598 0,2.6 0,4.225l2.228,0l0,10.482l-2.418,0c0,1.597 0,2.6 0,4.252c3.233,0 6.412,0 9.646,0c0,-1.652 0,-2.655 0,-4.252l-2.418,0Z" style="fill:#0e143c;fill-rule:nonzero;"/><path d="M652.365,735.439c0,-3.277 -2.636,-5.823 -5.924,-5.823l-8.124,0l0,18.959l8.912,0c3.886,0 5.897,-2.682 5.924,-5.986c0,-1.679 -0.734,-3.087 -2.283,-3.873c0.924,-0.758 1.495,-2.139 1.495,-3.277Zm-5.489,5.606c1.956,0 1.984,3.223 0.027,3.223l-3.885,0l0,-3.223l3.858,0Zm-0.815,-7.095c1.956,0 1.956,3.114 0.027,3.114l-3.07,0l0,-3.114l3.043,0Z" style="fill:#0e143c;fill-rule:nonzero;"/><path d="M668.206,748.575l4.755,0l0,-0.705l-8.586,-18.497l-2.092,0l-8.56,18.497l0,0.705l4.755,0l1.115,-2.384l7.499,0l1.114,2.384Zm-2.717,-6.555l-4.293,0l2.119,-4.983l2.174,4.983Z" style="fill:#0e143c;fill-rule:nonzero;"/><path d="M680.325,729.616c-1.658,0 -3.261,0 -4.891,0l0,18.959c3.858,0 7.879,0 11.792,0c0,-1.625 0,-2.736 0,-4.361l-6.901,0c0,-8.071 0,-4.794 0,-14.598Z" style="fill:#0e143c;fill-rule:nonzero;"/><path d="M600.589,767.779c-1.658,0 -3.071,0 -4.701,0c-0.109,8.341 15.379,8.125 15.379,0.162c0,-4.739 -3.695,-5.227 -7.472,-5.633c-1.712,-0.19 -3.125,-0.488 -3.016,-1.923c0.163,-2.248 5.271,-2.465 5.271,0.054c1.658,0 2.908,0 4.62,0c0.108,-8.179 -14.673,-8.179 -14.51,0c0.054,4.117 2.771,5.525 6.902,5.823c1.902,0.108 3.478,0.325 3.478,1.652c0,2.221 -5.951,2.275 -5.951,-0.135Z" style="fill:#0e143c;fill-rule:nonzero;"/><path d="M617.626,758.95l0,14.625c1.603,0 3.206,0 4.809,0l0,-14.625l4.646,0c0,-1.463 0,-2.898 0,-4.334l-14.129,0c0,1.436 0,2.871 0,4.334l4.674,0Z" style="fill:#0e143c;fill-rule:nonzero;"/><path d="M641.129,773.575l4.755,0l0,-0.705l-8.586,-18.497l-2.092,0l-8.559,18.497l0,0.705l4.755,0l1.114,-2.384l7.499,0l1.114,2.384Zm-2.717,-6.555l-4.293,0l2.119,-4.983l2.174,4.983Z" style="fill:#0e143c;fill-rule:nonzero;"/><path d="M647.216,764.095c0.027,6.473 4.918,9.696 9.754,9.696c3.506,0 7.119,-1.516 8.478,-5.471c0.652,-1.841 0.652,-3.656 0.543,-5.552l-8.993,0l0,4.198l4.048,0c-0.869,1.815 -2.119,2.329 -4.076,2.329c-2.88,0 -4.727,-2.058 -4.727,-5.2c0,-2.897 1.657,-5.281 4.727,-5.281c1.93,0 3.18,0.65 3.968,2.275l4.782,0c-0.924,-4.712 -4.918,-6.689 -8.75,-6.716c-4.836,0 -9.727,3.25 -9.754,9.722Z" style="fill:#0e143c;fill-rule:nonzero;"/><path d="M681.724,754.616c-4.456,0 -7.472,0 -11.874,0c0,6.284 0,12.621 0,18.959c4.402,0 7.662,0 12.118,0c0,-1.436 0,-2.898 0,-4.307c-2.853,0 -4.483,0 -7.282,0c0,-1.137 0,-2.22 0,-3.331l6.467,0c0,-1.435 0,-2.871 0,-4.306l-6.467,0l0,-2.681c2.799,0 4.212,0 7.038,0c0,-1.463 0,-2.925 0,-4.334Z" style="fill:#0e143c;fill-rule:nonzero;"/></g><g><path d="M1683.56,564.118c0.029,6.97 5.279,10.441 10.471,10.441c3.763,0 7.642,-1.633 9.1,-5.891c0.7,-1.984 0.7,-3.938 0.583,-5.98l-9.654,0l0,4.521l4.346,0c-0.933,1.954 -2.275,2.509 -4.375,2.509c-3.092,0 -5.075,-2.217 -5.075,-5.6c0,-3.121 1.779,-5.688 5.075,-5.688c2.071,0 3.413,0.7 4.258,2.45l5.134,0c-0.992,-5.075 -5.279,-7.204 -9.392,-7.233c-5.192,0 -10.442,3.5 -10.471,10.471Z" style="fill:#fff;fill-rule:nonzero;"/><path d="M1722.3,574.326l5.104,0l0,-0.758l-9.217,-19.921l-2.246,0l-9.187,19.921l0,0.758l5.104,0l1.196,-2.567l8.05,0l1.196,2.567Zm-2.917,-7.058l-4.608,0l2.275,-5.367l2.333,5.367Z" style="fill:#fff;fill-rule:nonzero;"/><path d="M1736.76,553.909c-1.779,0 -3.5,0 -5.25,0l0,20.417c4.142,0 8.459,0 12.659,0c0,-1.75 0,-2.946 0,-4.696l-7.409,0c0,-8.692 0,-5.162 0,-15.721Z" style="fill:#fff;fill-rule:nonzero;"/><path d="M1754.44,553.909c-1.779,0 -3.5,0 -5.25,0l0,20.417c4.142,0 8.459,0 12.659,0c0,-1.75 0,-2.946 0,-4.696l-7.409,0c0,-8.692 0,-5.162 0,-15.721Z" style="fill:#fff;fill-rule:nonzero;"/><path d="M1779.64,553.909c-4.783,0 -8.021,0 -12.746,0c0,6.767 0,13.592 0,20.417c4.725,0 8.225,0 13.009,0c0,-1.546 0,-3.121 0,-4.638c-3.063,0 -4.813,0 -7.817,0c0,-1.225 0,-2.391 0,-3.587l6.942,0c0,-1.546 0,-3.092 0,-4.638l-6.942,0l0,-2.887c3.004,0 4.521,0 7.554,0c0,-1.575 0,-3.15 0,-4.667Z" style="fill:#fff;fill-rule:nonzero;"/><path d="M1799.09,567.093c5.163,-3.5 3.705,-13.155 -4.316,-13.184c-2.975,0 -6.009,0 -8.954,0c0,6.825 0,13.621 0,20.417c1.691,0 3.47,0 5.22,0l0,-6.008l2.713,0l3.5,6.008l5.833,0l0,-0.758l-3.996,-6.475Zm-4.316,-3.471l-3.734,0c0,-1.634 0,-3.384 0,-5.046c1.225,0 2.509,-0.029 3.734,0c2.975,0.029 2.829,5.046 0,5.046Z" style="fill:#fff;fill-rule:nonzero;"/><path d="M1817.09,565.751l6.884,-11.054l0,-0.788l-5.659,0l-3.704,6.796l-0.204,0l-3.704,-6.796l-5.629,0l0,0.788l6.854,11.054l0,8.575l5.162,0l0,-8.575Z" style="fill:#fff;fill-rule:nonzero;"/></g><path d="M276.637,412.277c0.196,-10.017 -3.676,-24.036 -7.601,-35.561c-4.719,-5.92 -9.415,-11.201 -13.035,-13.944c-0.423,-8.312 -1.176,-13.064 -3.27,-17.517c-1.387,-2.948 -4.68,-10.281 -6.749,-14.904c0,0 -0.447,-1.058 -0.879,-1.964c0.587,0.76 1.262,1.743 1.262,1.743c2.969,4.103 7.673,10.622 9.532,13.296c2.809,4.041 6.549,7.069 13.535,11.592c0.564,4.482 2.768,11.144 5.515,18.149c8.037,9.189 18.278,19.619 27.053,24.474c4.337,-1.512 8.847,-2.654 13.493,-3.389c2.398,-3.842 4.419,-7.781 6.086,-11.466c-2.055,-5.971 -4.659,-11.492 -7.874,-14.83c6.913,-5.91 10.058,-9.493 10.811,-13.405c0.498,-2.588 1.984,-8.968 2.931,-12.986c0,0 0.26,-0.908 0.404,-1.706c0.235,0.758 0.404,1.706 0.404,1.706c0.947,4.018 2.433,10.398 2.931,12.986c0.753,3.912 3.898,7.495 10.811,13.405c-3.198,3.321 -5.792,8.801 -7.842,14.736c1.679,3.716 3.713,7.694 6.128,11.571c4.656,0.742 9.177,1.892 13.524,3.415c8.753,-4.861 18.914,-15.183 26.905,-24.313c2.767,-7.046 4.992,-13.754 5.558,-18.26c6.986,-4.522 10.726,-7.551 13.535,-11.592c1.859,-2.674 6.563,-9.193 9.532,-13.296c0,0 0.693,-0.915 1.262,-1.742c-0.365,0.888 -0.878,1.963 -0.878,1.963c-2.069,4.623 -5.363,11.956 -6.749,14.904c-2.095,4.453 -2.848,9.205 -3.271,17.517c-3.6,2.729 -8.267,7.969 -12.961,13.851c-3.927,11.519 -7.827,25.551 -7.67,35.572c3.574,3.075 6.869,6.465 9.842,10.128c4.551,0.161 9,-0.059 13.047,-0.459c4.143,-4.765 7.622,-9.781 8.906,-14.234c8.575,3.032 13.25,3.964 17.014,2.66c2.491,-0.863 8.758,-2.766 12.712,-3.954c0,0 0.917,-0.23 1.68,-0.504c-0.54,0.582 -1.276,1.203 -1.276,1.203c-3.006,2.83 -7.788,7.306 -9.781,9.032c-3.011,2.607 -4.541,7.123 -6.203,16.064c-4.475,-1.109 -10.518,-0.615 -16.683,0.577c-2.391,3.329 -4.832,7.102 -6.992,11.158c1.638,4.3 2.908,8.78 3.773,13.403c8.588,5.145 22.598,8.781 34.493,11.135c7.486,-1.127 14.408,-2.554 18.593,-4.317c7.41,3.79 11.902,5.514 16.806,5.926c3.246,0.273 11.243,1.088 16.281,1.607c0,0 1.139,0.143 2.14,0.222c-0.951,0.128 -2.14,0.221 -2.14,0.221c-5.038,0.519 -13.035,1.334 -16.281,1.607c-4.904,0.412 -9.396,2.136 -16.806,5.926c-4.164,-1.753 -11.035,-3.175 -18.475,-4.299c-11.934,2.357 -26.029,5.994 -34.631,11.136c-0.869,4.61 -2.142,9.078 -3.779,13.367c2.136,4.022 4.551,7.764 6.921,11.069c6.198,1.205 12.281,1.711 16.78,0.596c1.662,8.941 3.192,13.457 6.203,16.064c1.993,1.726 6.775,6.202 9.781,9.032c0,0 0.657,0.679 1.276,1.203c-0.775,-0.176 -1.68,-0.504 -1.68,-0.504c-3.954,-1.188 -10.221,-3.091 -12.712,-3.954c-3.764,-1.304 -8.439,-0.372 -17.014,2.66c-1.277,-4.43 -4.727,-9.416 -8.841,-14.159c-4.079,-0.407 -8.568,-0.634 -13.159,-0.477c-2.961,3.643 -6.242,7.016 -9.8,10.076c-0.196,10.017 3.676,24.036 7.601,35.561c4.719,5.92 9.416,11.2 13.035,13.944c0.423,8.312 1.176,13.064 3.271,17.517c1.386,2.948 4.68,10.281 6.749,14.904c0,0 0.446,1.057 0.878,1.964c-0.587,-0.76 -1.262,-1.743 -1.262,-1.743c-2.969,-4.103 -7.673,-10.622 -9.532,-13.296c-2.809,-4.041 -6.549,-7.07 -13.535,-11.592c-0.563,-4.482 -2.768,-11.144 -5.515,-18.149c-8.037,-9.189 -18.278,-19.619 -27.053,-24.474c-4.337,1.512 -8.847,2.654 -13.493,3.389c-2.398,3.842 -4.418,7.781 -6.086,11.466c2.055,5.971 4.659,11.492 7.874,14.83c-6.913,5.91 -10.058,9.493 -10.811,13.405c-0.498,2.588 -1.984,8.967 -2.931,12.986c0,0 -0.26,0.908 -0.404,1.706c-0.234,-0.759 -0.404,-1.706 -0.404,-1.706c-0.947,-4.019 -2.433,-10.398 -2.931,-12.986c-0.753,-3.912 -3.898,-7.495 -10.811,-13.405c3.198,-3.321 5.792,-8.802 7.842,-14.736c-1.679,-3.716 -3.713,-7.694 -6.128,-11.571c-4.656,-0.742 -9.177,-1.892 -13.524,-3.415c-8.753,4.861 -18.914,15.183 -26.904,24.313c-2.768,7.046 -4.992,13.754 -5.559,18.26c-6.986,4.522 -10.726,7.551 -13.535,11.591c-1.859,2.675 -6.563,9.194 -9.532,13.297c0,0 -0.693,0.915 -1.262,1.742c0.365,-0.888 0.879,-1.963 0.879,-1.963c2.069,-4.623 5.362,-11.957 6.749,-14.904c2.094,-4.453 2.847,-9.206 3.27,-17.517c3.601,-2.729 8.267,-7.969 12.961,-13.851c3.927,-11.519 7.827,-25.551 7.67,-35.572c-3.574,-3.075 -6.869,-6.465 -9.842,-10.128c-4.551,-0.162 -9,0.059 -13.047,0.459c-4.143,4.765 -7.622,9.78 -8.906,14.234c-8.574,-3.032 -13.25,-3.964 -17.014,-2.66c-2.491,0.863 -8.758,2.766 -12.712,3.954c0,0 -0.917,0.229 -1.68,0.504c0.54,-0.582 1.276,-1.203 1.276,-1.203c3.006,-2.83 7.788,-7.306 9.781,-9.032c3.011,-2.607 4.541,-7.123 6.203,-16.064c4.475,1.109 10.518,0.615 16.683,-0.577c2.391,-3.329 4.833,-7.103 6.992,-11.158c-1.638,-4.3 -2.908,-8.78 -3.773,-13.403c-8.587,-5.145 -22.598,-8.781 -34.493,-11.135c-7.486,1.127 -14.407,2.554 -18.593,4.317c-7.41,-3.79 -11.902,-5.514 -16.806,-5.926c-3.245,-0.274 -11.243,-1.088 -16.281,-1.607c0,0 -1.139,-0.143 -2.14,-0.222c0.951,-0.128 2.14,-0.221 2.14,-0.221c5.038,-0.519 13.036,-1.334 16.281,-1.607c4.904,-0.413 9.396,-2.136 16.806,-5.926c4.164,1.753 11.035,3.175 18.475,4.299c11.934,-2.357 26.03,-5.994 34.631,-11.137c0.869,-4.609 2.142,-9.078 3.779,-13.366c-2.136,-4.022 -4.551,-7.765 -6.921,-11.069c-6.198,-1.205 -12.281,-1.711 -16.78,-0.596c-1.662,-8.941 -3.192,-13.457 -6.203,-16.064c-1.993,-1.726 -6.775,-6.202 -9.781,-9.032c0,0 -0.656,-0.679 -1.276,-1.203c0.775,0.176 1.68,0.504 1.68,0.504c3.954,1.188 10.221,3.091 12.712,3.954c3.764,1.304 8.44,0.372 17.014,-2.66c1.277,4.43 4.727,9.416 8.841,14.159c4.079,0.406 8.568,0.634 13.159,0.476c2.962,-3.642 6.242,-7.015 9.8,-10.075Z" style="fill:#fff;"/><g><path d="M296.435,453.678l-9.134,-10.133l-2.2,0l0,23.4c2.034,0 4.067,0 6.1,0l0,-10.4l4.934,5.2l0.666,0l4.967,-5.2l0,10.4c2.033,0 4.067,0 6.1,0l0,-23.4l-2.133,0l-9.3,10.133Z" style="fill:#0e143c;fill-rule:nonzero;"/><path d="M328.635,466.945l5.833,0l0,-0.867l-10.533,-22.766l-2.567,0l-10.5,22.766l0,0.867l5.833,0l1.367,-2.933l9.2,0l1.367,2.933Zm-3.334,-8.067l-5.266,0l2.6,-6.133l2.666,6.133Z" style="fill:#0e143c;fill-rule:nonzero;"/><path d="M344.468,461.712l0,-12.9l2.733,0c0,-2 0,-3.234 0,-5.2c-3.8,0 -7.566,0 -11.366,0c0,1.966 0,3.2 0,5.2l2.733,0l0,12.9l-2.967,0c0,1.966 0,3.2 0,5.233c3.967,0 7.867,0 11.834,0c0,-2.033 0,-3.267 0,-5.233l-2.967,0Z" style="fill:#0e143c;fill-rule:nonzero;"/><path d="M369.268,466.978l2.133,0l0,-23.366c-2.033,0 -4.066,0 -6.1,0l0,11.433l-11.8,-11.533l-2.166,0l0,23.433c2.033,0 4.1,0 6.166,0l0,-11.467l11.767,11.5Z" style="fill:#0e143c;fill-rule:nonzero;"/><path d="M280.818,493.145c-2.033,0 -3.767,0 -5.767,0c-0.133,10.267 18.867,10 18.867,0.2c0,-5.833 -4.533,-6.433 -9.167,-6.933c-2.1,-0.234 -3.833,-0.6 -3.7,-2.367c0.2,-2.767 6.467,-3.033 6.467,0.067c2.033,0 3.567,0 5.667,0c0.133,-10.067 -18,-10.067 -17.8,0c0.066,5.066 3.4,6.8 8.466,7.166c2.334,0.134 4.267,0.4 4.267,2.034c0,2.733 -7.3,2.8 -7.3,-0.167Z" style="fill:#0e143c;fill-rule:nonzero;"/><path d="M301.718,482.278l0,18c1.967,0 3.933,0 5.9,0l0,-18l5.7,0c0,-1.8 0,-3.566 0,-5.333l-17.333,0c0,1.767 0,3.533 0,5.333l5.733,0Z" style="fill:#0e143c;fill-rule:nonzero;"/><path d="M330.551,500.278l5.834,0l0,-0.866l-10.534,-22.767l-2.566,0l-10.5,22.767l0,0.866l5.833,0l1.367,-2.933l9.2,0l1.366,2.933Zm-3.333,-8.066l-5.267,0l2.6,-6.134l2.667,6.134Z" style="fill:#0e143c;fill-rule:nonzero;"/><path d="M338.018,488.612c0.033,7.966 6.033,11.933 11.967,11.933c4.3,0 8.733,-1.867 10.4,-6.733c0.8,-2.267 0.8,-4.5 0.666,-6.834l-11.033,0l0,5.167l4.967,0c-1.067,2.233 -2.6,2.867 -5,2.867c-3.534,0 -5.8,-2.534 -5.8,-6.4c0,-3.567 2.033,-6.5 5.8,-6.5c2.366,0 3.9,0.8 4.866,2.8l5.867,0c-1.133,-5.8 -6.033,-8.234 -10.733,-8.267c-5.934,0 -11.934,4 -11.967,11.967Z" style="fill:#0e143c;fill-rule:nonzero;"/><path d="M380.351,476.945c-5.466,0 -9.166,0 -14.566,0c0,7.733 0,15.533 0,23.333c5.4,0 9.4,0 14.866,0c0,-1.766 0,-3.566 0,-5.3c-3.5,0 -5.5,0 -8.933,0c0,-1.4 0,-2.733 0,-4.1l7.933,0c0,-1.766 0,-3.533 0,-5.3l-7.933,0l0,-3.3c3.433,0 5.167,0 8.633,0c0,-1.8 0,-3.6 0,-5.333Z" style="fill:#0e143c;fill-rule:nonzero;"/></g></g></svg>